G04 #@! TF.GenerationSoftware,KiCad,Pcbnew,(5.0.0)*
G04 #@! TF.CreationDate,2018-11-13T10:35:00+02:00*
G04 #@! TF.ProjectId,led_matrix,6C65645F6D61747269782E6B69636164,rev?*
G04 #@! TF.SameCoordinates,Original*
G04 #@! TF.FileFunction,Soldermask,Top*
G04 #@! TF.FilePolarity,Negative*
%FSLAX46Y46*%
G04 Gerber Fmt 4.6, Leading zero omitted, Abs format (unit mm)*
G04 Created by KiCad (PCBNEW (5.0.0)) date 11/13/18 10:35:00*
%MOMM*%
%LPD*%
G01*
G04 APERTURE LIST*
%ADD10R,2.200000X2.200000*%
%ADD11C,2.200000*%
%ADD12C,0.100000*%
%ADD13C,1.550000*%
%ADD14R,2.100000X2.100000*%
%ADD15O,2.100000X2.100000*%
G04 APERTURE END LIST*
D10*
G04 #@! TO.C,D1*
X29500000Y-23900000D03*
D11*
X32040000Y-23900000D03*
G04 #@! TD*
G04 #@! TO.C,D2*
X32040000Y-31900000D03*
D10*
X29500000Y-31900000D03*
G04 #@! TD*
D11*
G04 #@! TO.C,D3*
X32040000Y-39900000D03*
D10*
X29500000Y-39900000D03*
G04 #@! TD*
G04 #@! TO.C,D4*
X29500000Y-47900000D03*
D11*
X32040000Y-47900000D03*
G04 #@! TD*
G04 #@! TO.C,D5*
X32040000Y-55900000D03*
D10*
X29500000Y-55900000D03*
G04 #@! TD*
G04 #@! TO.C,D6*
X29500000Y-63900000D03*
D11*
X32040000Y-63900000D03*
G04 #@! TD*
G04 #@! TO.C,D7*
X32040000Y-71900000D03*
D10*
X29500000Y-71900000D03*
G04 #@! TD*
G04 #@! TO.C,D8*
X29500000Y-79900000D03*
D11*
X32040000Y-79900000D03*
G04 #@! TD*
D10*
G04 #@! TO.C,D9*
X37500000Y-23900000D03*
D11*
X40040000Y-23900000D03*
G04 #@! TD*
D10*
G04 #@! TO.C,D10*
X37500000Y-31900000D03*
D11*
X40040000Y-31900000D03*
G04 #@! TD*
G04 #@! TO.C,D11*
X40040000Y-39900000D03*
D10*
X37500000Y-39900000D03*
G04 #@! TD*
G04 #@! TO.C,D12*
X37500000Y-47900000D03*
D11*
X40040000Y-47900000D03*
G04 #@! TD*
G04 #@! TO.C,D13*
X40040000Y-55900000D03*
D10*
X37500000Y-55900000D03*
G04 #@! TD*
G04 #@! TO.C,D14*
X37500000Y-63900000D03*
D11*
X40040000Y-63900000D03*
G04 #@! TD*
G04 #@! TO.C,D15*
X40040000Y-71900000D03*
D10*
X37500000Y-71900000D03*
G04 #@! TD*
G04 #@! TO.C,D16*
X37500000Y-79900000D03*
D11*
X40040000Y-79900000D03*
G04 #@! TD*
G04 #@! TO.C,D17*
X48040000Y-23900000D03*
D10*
X45500000Y-23900000D03*
G04 #@! TD*
D11*
G04 #@! TO.C,D18*
X48040000Y-31900000D03*
D10*
X45500000Y-31900000D03*
G04 #@! TD*
G04 #@! TO.C,D19*
X45500000Y-39900000D03*
D11*
X48040000Y-39900000D03*
G04 #@! TD*
G04 #@! TO.C,D20*
X48040000Y-47900000D03*
D10*
X45500000Y-47900000D03*
G04 #@! TD*
G04 #@! TO.C,D21*
X45500000Y-55900000D03*
D11*
X48040000Y-55900000D03*
G04 #@! TD*
G04 #@! TO.C,D22*
X48040000Y-63900000D03*
D10*
X45500000Y-63900000D03*
G04 #@! TD*
G04 #@! TO.C,D23*
X45500000Y-71900000D03*
D11*
X48040000Y-71900000D03*
G04 #@! TD*
G04 #@! TO.C,D24*
X48040000Y-79900000D03*
D10*
X45500000Y-79900000D03*
G04 #@! TD*
G04 #@! TO.C,D25*
X53500000Y-23900000D03*
D11*
X56040000Y-23900000D03*
G04 #@! TD*
G04 #@! TO.C,D26*
X56040000Y-31900000D03*
D10*
X53500000Y-31900000D03*
G04 #@! TD*
G04 #@! TO.C,D27*
X53500000Y-39900000D03*
D11*
X56040000Y-39900000D03*
G04 #@! TD*
G04 #@! TO.C,D28*
X56040000Y-47900000D03*
D10*
X53500000Y-47900000D03*
G04 #@! TD*
G04 #@! TO.C,D29*
X53500000Y-55900000D03*
D11*
X56040000Y-55900000D03*
G04 #@! TD*
G04 #@! TO.C,D30*
X56040000Y-63900000D03*
D10*
X53500000Y-63900000D03*
G04 #@! TD*
G04 #@! TO.C,D31*
X53500000Y-71900000D03*
D11*
X56040000Y-71900000D03*
G04 #@! TD*
G04 #@! TO.C,D32*
X56040000Y-79900000D03*
D10*
X53500000Y-79900000D03*
G04 #@! TD*
G04 #@! TO.C,D33*
X61500000Y-23900000D03*
D11*
X64040000Y-23900000D03*
G04 #@! TD*
D10*
G04 #@! TO.C,D34*
X61500000Y-31900000D03*
D11*
X64040000Y-31900000D03*
G04 #@! TD*
G04 #@! TO.C,D35*
X64040000Y-39900000D03*
D10*
X61500000Y-39900000D03*
G04 #@! TD*
G04 #@! TO.C,D36*
X61500000Y-47900000D03*
D11*
X64040000Y-47900000D03*
G04 #@! TD*
G04 #@! TO.C,D37*
X64040000Y-55900000D03*
D10*
X61500000Y-55900000D03*
G04 #@! TD*
G04 #@! TO.C,D38*
X61500000Y-63900000D03*
D11*
X64040000Y-63900000D03*
G04 #@! TD*
G04 #@! TO.C,D39*
X64040000Y-71900000D03*
D10*
X61500000Y-71900000D03*
G04 #@! TD*
G04 #@! TO.C,D40*
X61500000Y-79900000D03*
D11*
X64040000Y-79900000D03*
G04 #@! TD*
G04 #@! TO.C,D41*
X72040000Y-23900000D03*
D10*
X69500000Y-23900000D03*
G04 #@! TD*
D11*
G04 #@! TO.C,D42*
X72040000Y-31900000D03*
D10*
X69500000Y-31900000D03*
G04 #@! TD*
D11*
G04 #@! TO.C,D43*
X72040000Y-39900000D03*
D10*
X69500000Y-39900000D03*
G04 #@! TD*
G04 #@! TO.C,D44*
X69500000Y-47900000D03*
D11*
X72040000Y-47900000D03*
G04 #@! TD*
G04 #@! TO.C,D45*
X72040000Y-55900000D03*
D10*
X69500000Y-55900000D03*
G04 #@! TD*
G04 #@! TO.C,D46*
X69500000Y-63900000D03*
D11*
X72040000Y-63900000D03*
G04 #@! TD*
G04 #@! TO.C,D47*
X72040000Y-71900000D03*
D10*
X69500000Y-71900000D03*
G04 #@! TD*
G04 #@! TO.C,D48*
X69500000Y-79900000D03*
D11*
X72040000Y-79900000D03*
G04 #@! TD*
G04 #@! TO.C,D49*
X80040000Y-23900000D03*
D10*
X77500000Y-23900000D03*
G04 #@! TD*
G04 #@! TO.C,D50*
X77500000Y-31900000D03*
D11*
X80040000Y-31900000D03*
G04 #@! TD*
D10*
G04 #@! TO.C,D51*
X77500000Y-39900000D03*
D11*
X80040000Y-39900000D03*
G04 #@! TD*
G04 #@! TO.C,D52*
X80040000Y-47900000D03*
D10*
X77500000Y-47900000D03*
G04 #@! TD*
G04 #@! TO.C,D53*
X77500000Y-55900000D03*
D11*
X80040000Y-55900000D03*
G04 #@! TD*
G04 #@! TO.C,D54*
X80040000Y-63900000D03*
D10*
X77500000Y-63900000D03*
G04 #@! TD*
G04 #@! TO.C,D55*
X77500000Y-71900000D03*
D11*
X80040000Y-71900000D03*
G04 #@! TD*
G04 #@! TO.C,D56*
X80040000Y-79900000D03*
D10*
X77500000Y-79900000D03*
G04 #@! TD*
G04 #@! TO.C,D57*
X85500000Y-23900000D03*
D11*
X88040000Y-23900000D03*
G04 #@! TD*
G04 #@! TO.C,D58*
X88040000Y-31900000D03*
D10*
X85500000Y-31900000D03*
G04 #@! TD*
G04 #@! TO.C,D59*
X85500000Y-39900000D03*
D11*
X88040000Y-39900000D03*
G04 #@! TD*
G04 #@! TO.C,D60*
X88040000Y-47900000D03*
D10*
X85500000Y-47900000D03*
G04 #@! TD*
G04 #@! TO.C,D61*
X85500000Y-55900000D03*
D11*
X88040000Y-55900000D03*
G04 #@! TD*
G04 #@! TO.C,D62*
X88040000Y-63900000D03*
D10*
X85500000Y-63900000D03*
G04 #@! TD*
G04 #@! TO.C,D63*
X85500000Y-71900000D03*
D11*
X88040000Y-71900000D03*
G04 #@! TD*
G04 #@! TO.C,D64*
X88040000Y-79900000D03*
D10*
X85500000Y-79900000D03*
G04 #@! TD*
G04 #@! TO.C,D65*
X93500000Y-23900000D03*
D11*
X96040000Y-23900000D03*
G04 #@! TD*
G04 #@! TO.C,D66*
X96040000Y-31900000D03*
D10*
X93500000Y-31900000D03*
G04 #@! TD*
G04 #@! TO.C,D67*
X93500000Y-39900000D03*
D11*
X96040000Y-39900000D03*
G04 #@! TD*
D10*
G04 #@! TO.C,D68*
X93500000Y-47900000D03*
D11*
X96040000Y-47900000D03*
G04 #@! TD*
G04 #@! TO.C,D69*
X96515001Y-55900000D03*
D10*
X93975001Y-55900000D03*
G04 #@! TD*
G04 #@! TO.C,D70*
X93500000Y-63900000D03*
D11*
X96040000Y-63900000D03*
G04 #@! TD*
G04 #@! TO.C,D71*
X96040000Y-71900000D03*
D10*
X93500000Y-71900000D03*
G04 #@! TD*
G04 #@! TO.C,D72*
X93500000Y-79900000D03*
D11*
X96040000Y-79900000D03*
G04 #@! TD*
G04 #@! TO.C,D73*
X104040000Y-23900000D03*
D10*
X101500000Y-23900000D03*
G04 #@! TD*
G04 #@! TO.C,D74*
X101500000Y-31900000D03*
D11*
X104040000Y-31900000D03*
G04 #@! TD*
D10*
G04 #@! TO.C,D75*
X101500000Y-39900000D03*
D11*
X104040000Y-39900000D03*
G04 #@! TD*
D10*
G04 #@! TO.C,D76*
X101500000Y-47900000D03*
D11*
X104040000Y-47900000D03*
G04 #@! TD*
G04 #@! TO.C,D77*
X104040000Y-55900000D03*
D10*
X101500000Y-55900000D03*
G04 #@! TD*
G04 #@! TO.C,D78*
X101500000Y-63900000D03*
D11*
X104040000Y-63900000D03*
G04 #@! TD*
G04 #@! TO.C,D79*
X104040000Y-71900000D03*
D10*
X101500000Y-71900000D03*
G04 #@! TD*
G04 #@! TO.C,D80*
X101500000Y-79900000D03*
D11*
X104040000Y-79900000D03*
G04 #@! TD*
G04 #@! TO.C,D81*
X112040000Y-23900000D03*
D10*
X109500000Y-23900000D03*
G04 #@! TD*
G04 #@! TO.C,D82*
X109500000Y-31900000D03*
D11*
X112040000Y-31900000D03*
G04 #@! TD*
G04 #@! TO.C,D83*
X112040000Y-39900000D03*
D10*
X109500000Y-39900000D03*
G04 #@! TD*
G04 #@! TO.C,D84*
X109500000Y-47900000D03*
D11*
X112040000Y-47900000D03*
G04 #@! TD*
G04 #@! TO.C,D85*
X112040000Y-55900000D03*
D10*
X109500000Y-55900000D03*
G04 #@! TD*
G04 #@! TO.C,D86*
X109500000Y-63900000D03*
D11*
X112040000Y-63900000D03*
G04 #@! TD*
G04 #@! TO.C,D87*
X112040000Y-71900000D03*
D10*
X109500000Y-71900000D03*
G04 #@! TD*
G04 #@! TO.C,D88*
X109500000Y-79900000D03*
D11*
X112040000Y-79900000D03*
G04 #@! TD*
G04 #@! TO.C,D89*
X120040000Y-23900000D03*
D10*
X117500000Y-23900000D03*
G04 #@! TD*
G04 #@! TO.C,D90*
X117500000Y-31900000D03*
D11*
X120040000Y-31900000D03*
G04 #@! TD*
G04 #@! TO.C,D91*
X120040000Y-39900000D03*
D10*
X117500000Y-39900000D03*
G04 #@! TD*
D11*
G04 #@! TO.C,D92*
X120040000Y-47900000D03*
D10*
X117500000Y-47900000D03*
G04 #@! TD*
G04 #@! TO.C,D93*
X117500000Y-55900000D03*
D11*
X120040000Y-55900000D03*
G04 #@! TD*
G04 #@! TO.C,D94*
X120040000Y-63900000D03*
D10*
X117500000Y-63900000D03*
G04 #@! TD*
G04 #@! TO.C,D95*
X117500000Y-71900000D03*
D11*
X120040000Y-71900000D03*
G04 #@! TD*
G04 #@! TO.C,D96*
X120040000Y-79900000D03*
D10*
X117500000Y-79900000D03*
G04 #@! TD*
G04 #@! TO.C,D97*
X125500000Y-23900000D03*
D11*
X128040000Y-23900000D03*
G04 #@! TD*
D10*
G04 #@! TO.C,D98*
X125500000Y-31900000D03*
D11*
X128040000Y-31900000D03*
G04 #@! TD*
G04 #@! TO.C,D99*
X128040000Y-39900000D03*
D10*
X125500000Y-39900000D03*
G04 #@! TD*
D11*
G04 #@! TO.C,D100*
X128040000Y-47900000D03*
D10*
X125500000Y-47900000D03*
G04 #@! TD*
D11*
G04 #@! TO.C,D101*
X128040000Y-55900000D03*
D10*
X125500000Y-55900000D03*
G04 #@! TD*
G04 #@! TO.C,D102*
X125500000Y-63900000D03*
D11*
X128040000Y-63900000D03*
G04 #@! TD*
G04 #@! TO.C,D103*
X128040000Y-71900000D03*
D10*
X125500000Y-71900000D03*
G04 #@! TD*
G04 #@! TO.C,D104*
X125500000Y-79900000D03*
D11*
X128040000Y-79900000D03*
G04 #@! TD*
G04 #@! TO.C,D105*
X136040000Y-23900000D03*
D10*
X133500000Y-23900000D03*
G04 #@! TD*
G04 #@! TO.C,D106*
X133500000Y-31900000D03*
D11*
X136040000Y-31900000D03*
G04 #@! TD*
G04 #@! TO.C,D107*
X136040000Y-39900000D03*
D10*
X133500000Y-39900000D03*
G04 #@! TD*
D11*
G04 #@! TO.C,D108*
X136040000Y-47900000D03*
D10*
X133500000Y-47900000D03*
G04 #@! TD*
D11*
G04 #@! TO.C,D109*
X136040000Y-55900000D03*
D10*
X133500000Y-55900000D03*
G04 #@! TD*
G04 #@! TO.C,D110*
X133500000Y-63900000D03*
D11*
X136040000Y-63900000D03*
G04 #@! TD*
G04 #@! TO.C,D111*
X136040000Y-71900000D03*
D10*
X133500000Y-71900000D03*
G04 #@! TD*
G04 #@! TO.C,D112*
X133500000Y-79900000D03*
D11*
X136040000Y-79900000D03*
G04 #@! TD*
G04 #@! TO.C,D113*
X144040000Y-23900000D03*
D10*
X141500000Y-23900000D03*
G04 #@! TD*
G04 #@! TO.C,D114*
X141500000Y-31900000D03*
D11*
X144040000Y-31900000D03*
G04 #@! TD*
G04 #@! TO.C,D115*
X144040000Y-39900000D03*
D10*
X141500000Y-39900000D03*
G04 #@! TD*
G04 #@! TO.C,D116*
X141500000Y-47900000D03*
D11*
X144040000Y-47900000D03*
G04 #@! TD*
D10*
G04 #@! TO.C,D117*
X141500000Y-55900000D03*
D11*
X144040000Y-55900000D03*
G04 #@! TD*
G04 #@! TO.C,D118*
X144040000Y-63900000D03*
D10*
X141500000Y-63900000D03*
G04 #@! TD*
G04 #@! TO.C,D119*
X141500000Y-71900000D03*
D11*
X144040000Y-71900000D03*
G04 #@! TD*
G04 #@! TO.C,D120*
X144040000Y-79900000D03*
D10*
X141500000Y-79900000D03*
G04 #@! TD*
G04 #@! TO.C,D121*
X149500000Y-23900000D03*
D11*
X152040000Y-23900000D03*
G04 #@! TD*
G04 #@! TO.C,D122*
X152040000Y-31900000D03*
D10*
X149500000Y-31900000D03*
G04 #@! TD*
G04 #@! TO.C,D123*
X149500000Y-39900000D03*
D11*
X152040000Y-39900000D03*
G04 #@! TD*
G04 #@! TO.C,D124*
X152040000Y-47900000D03*
D10*
X149500000Y-47900000D03*
G04 #@! TD*
G04 #@! TO.C,D125*
X149500000Y-55900000D03*
D11*
X152040000Y-55900000D03*
G04 #@! TD*
G04 #@! TO.C,D126*
X152040000Y-63900000D03*
D10*
X149500000Y-63900000D03*
G04 #@! TD*
G04 #@! TO.C,D127*
X149500000Y-71900000D03*
D11*
X152040000Y-71900000D03*
G04 #@! TD*
G04 #@! TO.C,D128*
X152040000Y-79900000D03*
D10*
X149500000Y-79900000D03*
G04 #@! TD*
G04 #@! TO.C,D129*
X157500000Y-23900000D03*
D11*
X160040000Y-23900000D03*
G04 #@! TD*
G04 #@! TO.C,D130*
X160040000Y-31900000D03*
D10*
X157500000Y-31900000D03*
G04 #@! TD*
G04 #@! TO.C,D131*
X157500000Y-39900000D03*
D11*
X160040000Y-39900000D03*
G04 #@! TD*
G04 #@! TO.C,D132*
X160040000Y-47900000D03*
D10*
X157500000Y-47900000D03*
G04 #@! TD*
D11*
G04 #@! TO.C,D133*
X160040000Y-55900000D03*
D10*
X157500000Y-55900000D03*
G04 #@! TD*
D11*
G04 #@! TO.C,D134*
X160040000Y-63900000D03*
D10*
X157500000Y-63900000D03*
G04 #@! TD*
G04 #@! TO.C,D135*
X157500000Y-71900000D03*
D11*
X160040000Y-71900000D03*
G04 #@! TD*
G04 #@! TO.C,D136*
X160040000Y-79900000D03*
D10*
X157500000Y-79900000D03*
G04 #@! TD*
G04 #@! TO.C,D137*
X165500000Y-23900000D03*
D11*
X168040000Y-23900000D03*
G04 #@! TD*
G04 #@! TO.C,D138*
X168040000Y-31900000D03*
D10*
X165500000Y-31900000D03*
G04 #@! TD*
G04 #@! TO.C,D139*
X165500000Y-39900000D03*
D11*
X168040000Y-39900000D03*
G04 #@! TD*
G04 #@! TO.C,D140*
X168040000Y-47900000D03*
D10*
X165500000Y-47900000D03*
G04 #@! TD*
G04 #@! TO.C,D141*
X165500000Y-55900000D03*
D11*
X168040000Y-55900000D03*
G04 #@! TD*
G04 #@! TO.C,D142*
X168040000Y-63900000D03*
D10*
X165500000Y-63900000D03*
G04 #@! TD*
G04 #@! TO.C,D143*
X165500000Y-71900000D03*
D11*
X168040000Y-71900000D03*
G04 #@! TD*
G04 #@! TO.C,D144*
X168040000Y-79900000D03*
D10*
X165500000Y-79900000D03*
G04 #@! TD*
G04 #@! TO.C,D145*
X173500000Y-23900000D03*
D11*
X176040000Y-23900000D03*
G04 #@! TD*
G04 #@! TO.C,D146*
X176040000Y-31900000D03*
D10*
X173500000Y-31900000D03*
G04 #@! TD*
G04 #@! TO.C,D147*
X173500000Y-39900000D03*
D11*
X176040000Y-39900000D03*
G04 #@! TD*
G04 #@! TO.C,D148*
X176040000Y-47900000D03*
D10*
X173500000Y-47900000D03*
G04 #@! TD*
G04 #@! TO.C,D149*
X173500000Y-55900000D03*
D11*
X176040000Y-55900000D03*
G04 #@! TD*
G04 #@! TO.C,D150*
X176040000Y-63900000D03*
D10*
X173500000Y-63900000D03*
G04 #@! TD*
G04 #@! TO.C,D151*
X173500000Y-71900000D03*
D11*
X176040000Y-71900000D03*
G04 #@! TD*
G04 #@! TO.C,D152*
X176040000Y-79900000D03*
D10*
X173500000Y-79900000D03*
G04 #@! TD*
G04 #@! TO.C,D153*
X181500000Y-23900000D03*
D11*
X184040000Y-23900000D03*
G04 #@! TD*
G04 #@! TO.C,D154*
X184040000Y-31900000D03*
D10*
X181500000Y-31900000D03*
G04 #@! TD*
G04 #@! TO.C,D155*
X181500000Y-39900000D03*
D11*
X184040000Y-39900000D03*
G04 #@! TD*
G04 #@! TO.C,D156*
X184040000Y-47900000D03*
D10*
X181500000Y-47900000D03*
G04 #@! TD*
G04 #@! TO.C,D157*
X181500000Y-55900000D03*
D11*
X184040000Y-55900000D03*
G04 #@! TD*
G04 #@! TO.C,D158*
X184040000Y-63900000D03*
D10*
X181500000Y-63900000D03*
G04 #@! TD*
G04 #@! TO.C,D159*
X181500000Y-71900000D03*
D11*
X184040000Y-71900000D03*
G04 #@! TD*
G04 #@! TO.C,D160*
X184040000Y-79900000D03*
D10*
X181500000Y-79900000D03*
G04 #@! TD*
G04 #@! TO.C,D161*
X189500000Y-23900000D03*
D11*
X192040000Y-23900000D03*
G04 #@! TD*
G04 #@! TO.C,D162*
X192040000Y-31900000D03*
D10*
X189500000Y-31900000D03*
G04 #@! TD*
G04 #@! TO.C,D163*
X189500000Y-39900000D03*
D11*
X192040000Y-39900000D03*
G04 #@! TD*
D10*
G04 #@! TO.C,D164*
X189500000Y-47900000D03*
D11*
X192040000Y-47900000D03*
G04 #@! TD*
D10*
G04 #@! TO.C,D165*
X189500000Y-55900000D03*
D11*
X192040000Y-55900000D03*
G04 #@! TD*
G04 #@! TO.C,D166*
X192040000Y-63900000D03*
D10*
X189500000Y-63900000D03*
G04 #@! TD*
G04 #@! TO.C,D167*
X189500000Y-71900000D03*
D11*
X192040000Y-71900000D03*
G04 #@! TD*
G04 #@! TO.C,D168*
X192040000Y-79900000D03*
D10*
X189500000Y-79900000D03*
G04 #@! TD*
G04 #@! TO.C,D169*
X197500000Y-23900000D03*
D11*
X200040000Y-23900000D03*
G04 #@! TD*
G04 #@! TO.C,D170*
X200040000Y-31900000D03*
D10*
X197500000Y-31900000D03*
G04 #@! TD*
G04 #@! TO.C,D171*
X197500000Y-39900000D03*
D11*
X200040000Y-39900000D03*
G04 #@! TD*
G04 #@! TO.C,D172*
X200040000Y-47900000D03*
D10*
X197500000Y-47900000D03*
G04 #@! TD*
G04 #@! TO.C,D173*
X197500000Y-55900000D03*
D11*
X200040000Y-55900000D03*
G04 #@! TD*
G04 #@! TO.C,D174*
X200040000Y-63900000D03*
D10*
X197500000Y-63900000D03*
G04 #@! TD*
G04 #@! TO.C,D175*
X197500000Y-71900000D03*
D11*
X200040000Y-71900000D03*
G04 #@! TD*
G04 #@! TO.C,D176*
X200040000Y-79900000D03*
D10*
X197500000Y-79900000D03*
G04 #@! TD*
G04 #@! TO.C,D177*
X205500000Y-23900000D03*
D11*
X208040000Y-23900000D03*
G04 #@! TD*
G04 #@! TO.C,D178*
X208040000Y-31900000D03*
D10*
X205500000Y-31900000D03*
G04 #@! TD*
D11*
G04 #@! TO.C,D179*
X208040000Y-39900000D03*
D10*
X205500000Y-39900000D03*
G04 #@! TD*
D11*
G04 #@! TO.C,D180*
X208040000Y-47900000D03*
D10*
X205500000Y-47900000D03*
G04 #@! TD*
G04 #@! TO.C,D181*
X205500000Y-55900000D03*
D11*
X208040000Y-55900000D03*
G04 #@! TD*
G04 #@! TO.C,D182*
X208040000Y-63900000D03*
D10*
X205500000Y-63900000D03*
G04 #@! TD*
G04 #@! TO.C,D183*
X205500000Y-71900000D03*
D11*
X208040000Y-71900000D03*
G04 #@! TD*
G04 #@! TO.C,D184*
X208040000Y-79900000D03*
D10*
X205500000Y-79900000D03*
G04 #@! TD*
G04 #@! TO.C,D185*
X213500000Y-23900000D03*
D11*
X216040000Y-23900000D03*
G04 #@! TD*
G04 #@! TO.C,D186*
X216040000Y-31900000D03*
D10*
X213500000Y-31900000D03*
G04 #@! TD*
G04 #@! TO.C,D187*
X213500000Y-39900000D03*
D11*
X216040000Y-39900000D03*
G04 #@! TD*
G04 #@! TO.C,D188*
X216040000Y-47900000D03*
D10*
X213500000Y-47900000D03*
G04 #@! TD*
G04 #@! TO.C,D189*
X213500000Y-55900000D03*
D11*
X216040000Y-55900000D03*
G04 #@! TD*
G04 #@! TO.C,D190*
X216040000Y-63900000D03*
D10*
X213500000Y-63900000D03*
G04 #@! TD*
G04 #@! TO.C,D191*
X213500000Y-71900000D03*
D11*
X216040000Y-71900000D03*
G04 #@! TD*
G04 #@! TO.C,D192*
X216040000Y-79900000D03*
D10*
X213500000Y-79900000D03*
G04 #@! TD*
G04 #@! TO.C,D193*
X221500000Y-23900000D03*
D11*
X224040000Y-23900000D03*
G04 #@! TD*
D10*
G04 #@! TO.C,D194*
X221500000Y-31900000D03*
D11*
X224040000Y-31900000D03*
G04 #@! TD*
D10*
G04 #@! TO.C,D195*
X221500000Y-39900000D03*
D11*
X224040000Y-39900000D03*
G04 #@! TD*
G04 #@! TO.C,D196*
X224040000Y-47900000D03*
D10*
X221500000Y-47900000D03*
G04 #@! TD*
G04 #@! TO.C,D197*
X221500000Y-55900000D03*
D11*
X224040000Y-55900000D03*
G04 #@! TD*
G04 #@! TO.C,D198*
X224040000Y-63900000D03*
D10*
X221500000Y-63900000D03*
G04 #@! TD*
G04 #@! TO.C,D199*
X221500000Y-71900000D03*
D11*
X224040000Y-71900000D03*
G04 #@! TD*
G04 #@! TO.C,D200*
X224040000Y-79900000D03*
D10*
X221500000Y-79900000D03*
G04 #@! TD*
G04 #@! TO.C,D201*
X229500000Y-23900000D03*
D11*
X232040000Y-23900000D03*
G04 #@! TD*
G04 #@! TO.C,D202*
X232040000Y-31900000D03*
D10*
X229500000Y-31900000D03*
G04 #@! TD*
G04 #@! TO.C,D203*
X229500000Y-39900000D03*
D11*
X232040000Y-39900000D03*
G04 #@! TD*
G04 #@! TO.C,D204*
X232040000Y-47900000D03*
D10*
X229500000Y-47900000D03*
G04 #@! TD*
G04 #@! TO.C,D205*
X229500000Y-55900000D03*
D11*
X232040000Y-55900000D03*
G04 #@! TD*
G04 #@! TO.C,D206*
X232040000Y-63900000D03*
D10*
X229500000Y-63900000D03*
G04 #@! TD*
G04 #@! TO.C,D207*
X229500000Y-71900000D03*
D11*
X232040000Y-71900000D03*
G04 #@! TD*
G04 #@! TO.C,D208*
X232040000Y-79900000D03*
D10*
X229500000Y-79900000D03*
G04 #@! TD*
G04 #@! TO.C,D209*
X237500000Y-23900000D03*
D11*
X240040000Y-23900000D03*
G04 #@! TD*
G04 #@! TO.C,D210*
X240040000Y-31900000D03*
D10*
X237500000Y-31900000D03*
G04 #@! TD*
G04 #@! TO.C,D211*
X237500000Y-39900000D03*
D11*
X240040000Y-39900000D03*
G04 #@! TD*
G04 #@! TO.C,D212*
X240040000Y-47900000D03*
D10*
X237500000Y-47900000D03*
G04 #@! TD*
G04 #@! TO.C,D213*
X237500000Y-55900000D03*
D11*
X240040000Y-55900000D03*
G04 #@! TD*
G04 #@! TO.C,D214*
X240040000Y-63900000D03*
D10*
X237500000Y-63900000D03*
G04 #@! TD*
G04 #@! TO.C,D215*
X237500000Y-71900000D03*
D11*
X240040000Y-71900000D03*
G04 #@! TD*
G04 #@! TO.C,D216*
X240040000Y-79900000D03*
D10*
X237500000Y-79900000D03*
G04 #@! TD*
G04 #@! TO.C,D217*
X245500000Y-23900000D03*
D11*
X248040000Y-23900000D03*
G04 #@! TD*
G04 #@! TO.C,D218*
X248040000Y-31900000D03*
D10*
X245500000Y-31900000D03*
G04 #@! TD*
G04 #@! TO.C,D219*
X245500000Y-39900000D03*
D11*
X248040000Y-39900000D03*
G04 #@! TD*
G04 #@! TO.C,D220*
X248040000Y-47900000D03*
D10*
X245500000Y-47900000D03*
G04 #@! TD*
G04 #@! TO.C,D221*
X245500000Y-55900000D03*
D11*
X248040000Y-55900000D03*
G04 #@! TD*
G04 #@! TO.C,D222*
X248040000Y-63900000D03*
D10*
X245500000Y-63900000D03*
G04 #@! TD*
G04 #@! TO.C,D223*
X245500000Y-71900000D03*
D11*
X248040000Y-71900000D03*
G04 #@! TD*
G04 #@! TO.C,D224*
X248040000Y-79900000D03*
D10*
X245500000Y-79900000D03*
G04 #@! TD*
G04 #@! TO.C,D225*
X253500000Y-23900000D03*
D11*
X256040000Y-23900000D03*
G04 #@! TD*
G04 #@! TO.C,D226*
X256040000Y-31900000D03*
D10*
X253500000Y-31900000D03*
G04 #@! TD*
G04 #@! TO.C,D227*
X253500000Y-39900000D03*
D11*
X256040000Y-39900000D03*
G04 #@! TD*
G04 #@! TO.C,D228*
X256040000Y-47900000D03*
D10*
X253500000Y-47900000D03*
G04 #@! TD*
G04 #@! TO.C,D229*
X253500000Y-55900000D03*
D11*
X256040000Y-55900000D03*
G04 #@! TD*
G04 #@! TO.C,D230*
X256040000Y-63900000D03*
D10*
X253500000Y-63900000D03*
G04 #@! TD*
G04 #@! TO.C,D231*
X253500000Y-71900000D03*
D11*
X256040000Y-71900000D03*
G04 #@! TD*
G04 #@! TO.C,D232*
X256040000Y-79900000D03*
D10*
X253500000Y-79900000D03*
G04 #@! TD*
G04 #@! TO.C,D233*
X261500000Y-23900000D03*
D11*
X264040000Y-23900000D03*
G04 #@! TD*
G04 #@! TO.C,D234*
X264040000Y-31900000D03*
D10*
X261500000Y-31900000D03*
G04 #@! TD*
G04 #@! TO.C,D235*
X261500000Y-39900000D03*
D11*
X264040000Y-39900000D03*
G04 #@! TD*
G04 #@! TO.C,D236*
X264040000Y-47900000D03*
D10*
X261500000Y-47900000D03*
G04 #@! TD*
G04 #@! TO.C,D237*
X261500000Y-55900000D03*
D11*
X264040000Y-55900000D03*
G04 #@! TD*
G04 #@! TO.C,D238*
X264040000Y-63900000D03*
D10*
X261500000Y-63900000D03*
G04 #@! TD*
G04 #@! TO.C,D239*
X261500000Y-71900000D03*
D11*
X264040000Y-71900000D03*
G04 #@! TD*
G04 #@! TO.C,D240*
X264040000Y-79900000D03*
D10*
X261500000Y-79900000D03*
G04 #@! TD*
G04 #@! TO.C,D241*
X269500000Y-23900000D03*
D11*
X272040000Y-23900000D03*
G04 #@! TD*
G04 #@! TO.C,D242*
X272040000Y-31900000D03*
D10*
X269500000Y-31900000D03*
G04 #@! TD*
G04 #@! TO.C,D243*
X269500000Y-39900000D03*
D11*
X272040000Y-39900000D03*
G04 #@! TD*
G04 #@! TO.C,D244*
X272040000Y-47900000D03*
D10*
X269500000Y-47900000D03*
G04 #@! TD*
G04 #@! TO.C,D245*
X269500000Y-55900000D03*
D11*
X272040000Y-55900000D03*
G04 #@! TD*
G04 #@! TO.C,D246*
X272040000Y-63900000D03*
D10*
X269500000Y-63900000D03*
G04 #@! TD*
G04 #@! TO.C,D247*
X269500000Y-71900000D03*
D11*
X272040000Y-71900000D03*
G04 #@! TD*
G04 #@! TO.C,D248*
X272040000Y-79900000D03*
D10*
X269500000Y-79900000D03*
G04 #@! TD*
G04 #@! TO.C,D249*
X277500000Y-23900000D03*
D11*
X280040000Y-23900000D03*
G04 #@! TD*
G04 #@! TO.C,D250*
X280040000Y-31900000D03*
D10*
X277500000Y-31900000D03*
G04 #@! TD*
G04 #@! TO.C,D251*
X277500000Y-39900000D03*
D11*
X280040000Y-39900000D03*
G04 #@! TD*
G04 #@! TO.C,D252*
X280040000Y-47900000D03*
D10*
X277500000Y-47900000D03*
G04 #@! TD*
G04 #@! TO.C,D253*
X277500000Y-55900000D03*
D11*
X280040000Y-55900000D03*
G04 #@! TD*
G04 #@! TO.C,D254*
X280040000Y-63900000D03*
D10*
X277500000Y-63900000D03*
G04 #@! TD*
G04 #@! TO.C,D255*
X277500000Y-71900000D03*
D11*
X280040000Y-71900000D03*
G04 #@! TD*
G04 #@! TO.C,D256*
X280040000Y-79900000D03*
D10*
X277500000Y-79900000D03*
G04 #@! TD*
D12*
G04 #@! TO.C,R1*
G36*
X28946071Y-20001623D02*
X28978781Y-20006475D01*
X29010857Y-20014509D01*
X29041991Y-20025649D01*
X29071884Y-20039787D01*
X29100247Y-20056787D01*
X29126807Y-20076485D01*
X29151308Y-20098692D01*
X29173515Y-20123193D01*
X29193213Y-20149753D01*
X29210213Y-20178116D01*
X29224351Y-20208009D01*
X29235491Y-20239143D01*
X29243525Y-20271219D01*
X29248377Y-20303929D01*
X29250000Y-20336956D01*
X29250000Y-21463044D01*
X29248377Y-21496071D01*
X29243525Y-21528781D01*
X29235491Y-21560857D01*
X29224351Y-21591991D01*
X29210213Y-21621884D01*
X29193213Y-21650247D01*
X29173515Y-21676807D01*
X29151308Y-21701308D01*
X29126807Y-21723515D01*
X29100247Y-21743213D01*
X29071884Y-21760213D01*
X29041991Y-21774351D01*
X29010857Y-21785491D01*
X28978781Y-21793525D01*
X28946071Y-21798377D01*
X28913044Y-21800000D01*
X28036956Y-21800000D01*
X28003929Y-21798377D01*
X27971219Y-21793525D01*
X27939143Y-21785491D01*
X27908009Y-21774351D01*
X27878116Y-21760213D01*
X27849753Y-21743213D01*
X27823193Y-21723515D01*
X27798692Y-21701308D01*
X27776485Y-21676807D01*
X27756787Y-21650247D01*
X27739787Y-21621884D01*
X27725649Y-21591991D01*
X27714509Y-21560857D01*
X27706475Y-21528781D01*
X27701623Y-21496071D01*
X27700000Y-21463044D01*
X27700000Y-20336956D01*
X27701623Y-20303929D01*
X27706475Y-20271219D01*
X27714509Y-20239143D01*
X27725649Y-20208009D01*
X27739787Y-20178116D01*
X27756787Y-20149753D01*
X27776485Y-20123193D01*
X27798692Y-20098692D01*
X27823193Y-20076485D01*
X27849753Y-20056787D01*
X27878116Y-20039787D01*
X27908009Y-20025649D01*
X27939143Y-20014509D01*
X27971219Y-20006475D01*
X28003929Y-20001623D01*
X28036956Y-20000000D01*
X28913044Y-20000000D01*
X28946071Y-20001623D01*
X28946071Y-20001623D01*
G37*
D13*
X28475000Y-20900000D03*
D12*
G36*
X30996071Y-20001623D02*
X31028781Y-20006475D01*
X31060857Y-20014509D01*
X31091991Y-20025649D01*
X31121884Y-20039787D01*
X31150247Y-20056787D01*
X31176807Y-20076485D01*
X31201308Y-20098692D01*
X31223515Y-20123193D01*
X31243213Y-20149753D01*
X31260213Y-20178116D01*
X31274351Y-20208009D01*
X31285491Y-20239143D01*
X31293525Y-20271219D01*
X31298377Y-20303929D01*
X31300000Y-20336956D01*
X31300000Y-21463044D01*
X31298377Y-21496071D01*
X31293525Y-21528781D01*
X31285491Y-21560857D01*
X31274351Y-21591991D01*
X31260213Y-21621884D01*
X31243213Y-21650247D01*
X31223515Y-21676807D01*
X31201308Y-21701308D01*
X31176807Y-21723515D01*
X31150247Y-21743213D01*
X31121884Y-21760213D01*
X31091991Y-21774351D01*
X31060857Y-21785491D01*
X31028781Y-21793525D01*
X30996071Y-21798377D01*
X30963044Y-21800000D01*
X30086956Y-21800000D01*
X30053929Y-21798377D01*
X30021219Y-21793525D01*
X29989143Y-21785491D01*
X29958009Y-21774351D01*
X29928116Y-21760213D01*
X29899753Y-21743213D01*
X29873193Y-21723515D01*
X29848692Y-21701308D01*
X29826485Y-21676807D01*
X29806787Y-21650247D01*
X29789787Y-21621884D01*
X29775649Y-21591991D01*
X29764509Y-21560857D01*
X29756475Y-21528781D01*
X29751623Y-21496071D01*
X29750000Y-21463044D01*
X29750000Y-20336956D01*
X29751623Y-20303929D01*
X29756475Y-20271219D01*
X29764509Y-20239143D01*
X29775649Y-20208009D01*
X29789787Y-20178116D01*
X29806787Y-20149753D01*
X29826485Y-20123193D01*
X29848692Y-20098692D01*
X29873193Y-20076485D01*
X29899753Y-20056787D01*
X29928116Y-20039787D01*
X29958009Y-20025649D01*
X29989143Y-20014509D01*
X30021219Y-20006475D01*
X30053929Y-20001623D01*
X30086956Y-20000000D01*
X30963044Y-20000000D01*
X30996071Y-20001623D01*
X30996071Y-20001623D01*
G37*
D13*
X30525000Y-20900000D03*
G04 #@! TD*
D12*
G04 #@! TO.C,R2*
G36*
X30996071Y-27001623D02*
X31028781Y-27006475D01*
X31060857Y-27014509D01*
X31091991Y-27025649D01*
X31121884Y-27039787D01*
X31150247Y-27056787D01*
X31176807Y-27076485D01*
X31201308Y-27098692D01*
X31223515Y-27123193D01*
X31243213Y-27149753D01*
X31260213Y-27178116D01*
X31274351Y-27208009D01*
X31285491Y-27239143D01*
X31293525Y-27271219D01*
X31298377Y-27303929D01*
X31300000Y-27336956D01*
X31300000Y-28463044D01*
X31298377Y-28496071D01*
X31293525Y-28528781D01*
X31285491Y-28560857D01*
X31274351Y-28591991D01*
X31260213Y-28621884D01*
X31243213Y-28650247D01*
X31223515Y-28676807D01*
X31201308Y-28701308D01*
X31176807Y-28723515D01*
X31150247Y-28743213D01*
X31121884Y-28760213D01*
X31091991Y-28774351D01*
X31060857Y-28785491D01*
X31028781Y-28793525D01*
X30996071Y-28798377D01*
X30963044Y-28800000D01*
X30086956Y-28800000D01*
X30053929Y-28798377D01*
X30021219Y-28793525D01*
X29989143Y-28785491D01*
X29958009Y-28774351D01*
X29928116Y-28760213D01*
X29899753Y-28743213D01*
X29873193Y-28723515D01*
X29848692Y-28701308D01*
X29826485Y-28676807D01*
X29806787Y-28650247D01*
X29789787Y-28621884D01*
X29775649Y-28591991D01*
X29764509Y-28560857D01*
X29756475Y-28528781D01*
X29751623Y-28496071D01*
X29750000Y-28463044D01*
X29750000Y-27336956D01*
X29751623Y-27303929D01*
X29756475Y-27271219D01*
X29764509Y-27239143D01*
X29775649Y-27208009D01*
X29789787Y-27178116D01*
X29806787Y-27149753D01*
X29826485Y-27123193D01*
X29848692Y-27098692D01*
X29873193Y-27076485D01*
X29899753Y-27056787D01*
X29928116Y-27039787D01*
X29958009Y-27025649D01*
X29989143Y-27014509D01*
X30021219Y-27006475D01*
X30053929Y-27001623D01*
X30086956Y-27000000D01*
X30963044Y-27000000D01*
X30996071Y-27001623D01*
X30996071Y-27001623D01*
G37*
D13*
X30525000Y-27900000D03*
D12*
G36*
X28946071Y-27001623D02*
X28978781Y-27006475D01*
X29010857Y-27014509D01*
X29041991Y-27025649D01*
X29071884Y-27039787D01*
X29100247Y-27056787D01*
X29126807Y-27076485D01*
X29151308Y-27098692D01*
X29173515Y-27123193D01*
X29193213Y-27149753D01*
X29210213Y-27178116D01*
X29224351Y-27208009D01*
X29235491Y-27239143D01*
X29243525Y-27271219D01*
X29248377Y-27303929D01*
X29250000Y-27336956D01*
X29250000Y-28463044D01*
X29248377Y-28496071D01*
X29243525Y-28528781D01*
X29235491Y-28560857D01*
X29224351Y-28591991D01*
X29210213Y-28621884D01*
X29193213Y-28650247D01*
X29173515Y-28676807D01*
X29151308Y-28701308D01*
X29126807Y-28723515D01*
X29100247Y-28743213D01*
X29071884Y-28760213D01*
X29041991Y-28774351D01*
X29010857Y-28785491D01*
X28978781Y-28793525D01*
X28946071Y-28798377D01*
X28913044Y-28800000D01*
X28036956Y-28800000D01*
X28003929Y-28798377D01*
X27971219Y-28793525D01*
X27939143Y-28785491D01*
X27908009Y-28774351D01*
X27878116Y-28760213D01*
X27849753Y-28743213D01*
X27823193Y-28723515D01*
X27798692Y-28701308D01*
X27776485Y-28676807D01*
X27756787Y-28650247D01*
X27739787Y-28621884D01*
X27725649Y-28591991D01*
X27714509Y-28560857D01*
X27706475Y-28528781D01*
X27701623Y-28496071D01*
X27700000Y-28463044D01*
X27700000Y-27336956D01*
X27701623Y-27303929D01*
X27706475Y-27271219D01*
X27714509Y-27239143D01*
X27725649Y-27208009D01*
X27739787Y-27178116D01*
X27756787Y-27149753D01*
X27776485Y-27123193D01*
X27798692Y-27098692D01*
X27823193Y-27076485D01*
X27849753Y-27056787D01*
X27878116Y-27039787D01*
X27908009Y-27025649D01*
X27939143Y-27014509D01*
X27971219Y-27006475D01*
X28003929Y-27001623D01*
X28036956Y-27000000D01*
X28913044Y-27000000D01*
X28946071Y-27001623D01*
X28946071Y-27001623D01*
G37*
D13*
X28475000Y-27900000D03*
G04 #@! TD*
D12*
G04 #@! TO.C,R3*
G36*
X28946071Y-35001623D02*
X28978781Y-35006475D01*
X29010857Y-35014509D01*
X29041991Y-35025649D01*
X29071884Y-35039787D01*
X29100247Y-35056787D01*
X29126807Y-35076485D01*
X29151308Y-35098692D01*
X29173515Y-35123193D01*
X29193213Y-35149753D01*
X29210213Y-35178116D01*
X29224351Y-35208009D01*
X29235491Y-35239143D01*
X29243525Y-35271219D01*
X29248377Y-35303929D01*
X29250000Y-35336956D01*
X29250000Y-36463044D01*
X29248377Y-36496071D01*
X29243525Y-36528781D01*
X29235491Y-36560857D01*
X29224351Y-36591991D01*
X29210213Y-36621884D01*
X29193213Y-36650247D01*
X29173515Y-36676807D01*
X29151308Y-36701308D01*
X29126807Y-36723515D01*
X29100247Y-36743213D01*
X29071884Y-36760213D01*
X29041991Y-36774351D01*
X29010857Y-36785491D01*
X28978781Y-36793525D01*
X28946071Y-36798377D01*
X28913044Y-36800000D01*
X28036956Y-36800000D01*
X28003929Y-36798377D01*
X27971219Y-36793525D01*
X27939143Y-36785491D01*
X27908009Y-36774351D01*
X27878116Y-36760213D01*
X27849753Y-36743213D01*
X27823193Y-36723515D01*
X27798692Y-36701308D01*
X27776485Y-36676807D01*
X27756787Y-36650247D01*
X27739787Y-36621884D01*
X27725649Y-36591991D01*
X27714509Y-36560857D01*
X27706475Y-36528781D01*
X27701623Y-36496071D01*
X27700000Y-36463044D01*
X27700000Y-35336956D01*
X27701623Y-35303929D01*
X27706475Y-35271219D01*
X27714509Y-35239143D01*
X27725649Y-35208009D01*
X27739787Y-35178116D01*
X27756787Y-35149753D01*
X27776485Y-35123193D01*
X27798692Y-35098692D01*
X27823193Y-35076485D01*
X27849753Y-35056787D01*
X27878116Y-35039787D01*
X27908009Y-35025649D01*
X27939143Y-35014509D01*
X27971219Y-35006475D01*
X28003929Y-35001623D01*
X28036956Y-35000000D01*
X28913044Y-35000000D01*
X28946071Y-35001623D01*
X28946071Y-35001623D01*
G37*
D13*
X28475000Y-35900000D03*
D12*
G36*
X30996071Y-35001623D02*
X31028781Y-35006475D01*
X31060857Y-35014509D01*
X31091991Y-35025649D01*
X31121884Y-35039787D01*
X31150247Y-35056787D01*
X31176807Y-35076485D01*
X31201308Y-35098692D01*
X31223515Y-35123193D01*
X31243213Y-35149753D01*
X31260213Y-35178116D01*
X31274351Y-35208009D01*
X31285491Y-35239143D01*
X31293525Y-35271219D01*
X31298377Y-35303929D01*
X31300000Y-35336956D01*
X31300000Y-36463044D01*
X31298377Y-36496071D01*
X31293525Y-36528781D01*
X31285491Y-36560857D01*
X31274351Y-36591991D01*
X31260213Y-36621884D01*
X31243213Y-36650247D01*
X31223515Y-36676807D01*
X31201308Y-36701308D01*
X31176807Y-36723515D01*
X31150247Y-36743213D01*
X31121884Y-36760213D01*
X31091991Y-36774351D01*
X31060857Y-36785491D01*
X31028781Y-36793525D01*
X30996071Y-36798377D01*
X30963044Y-36800000D01*
X30086956Y-36800000D01*
X30053929Y-36798377D01*
X30021219Y-36793525D01*
X29989143Y-36785491D01*
X29958009Y-36774351D01*
X29928116Y-36760213D01*
X29899753Y-36743213D01*
X29873193Y-36723515D01*
X29848692Y-36701308D01*
X29826485Y-36676807D01*
X29806787Y-36650247D01*
X29789787Y-36621884D01*
X29775649Y-36591991D01*
X29764509Y-36560857D01*
X29756475Y-36528781D01*
X29751623Y-36496071D01*
X29750000Y-36463044D01*
X29750000Y-35336956D01*
X29751623Y-35303929D01*
X29756475Y-35271219D01*
X29764509Y-35239143D01*
X29775649Y-35208009D01*
X29789787Y-35178116D01*
X29806787Y-35149753D01*
X29826485Y-35123193D01*
X29848692Y-35098692D01*
X29873193Y-35076485D01*
X29899753Y-35056787D01*
X29928116Y-35039787D01*
X29958009Y-35025649D01*
X29989143Y-35014509D01*
X30021219Y-35006475D01*
X30053929Y-35001623D01*
X30086956Y-35000000D01*
X30963044Y-35000000D01*
X30996071Y-35001623D01*
X30996071Y-35001623D01*
G37*
D13*
X30525000Y-35900000D03*
G04 #@! TD*
D12*
G04 #@! TO.C,R4*
G36*
X30996071Y-43001623D02*
X31028781Y-43006475D01*
X31060857Y-43014509D01*
X31091991Y-43025649D01*
X31121884Y-43039787D01*
X31150247Y-43056787D01*
X31176807Y-43076485D01*
X31201308Y-43098692D01*
X31223515Y-43123193D01*
X31243213Y-43149753D01*
X31260213Y-43178116D01*
X31274351Y-43208009D01*
X31285491Y-43239143D01*
X31293525Y-43271219D01*
X31298377Y-43303929D01*
X31300000Y-43336956D01*
X31300000Y-44463044D01*
X31298377Y-44496071D01*
X31293525Y-44528781D01*
X31285491Y-44560857D01*
X31274351Y-44591991D01*
X31260213Y-44621884D01*
X31243213Y-44650247D01*
X31223515Y-44676807D01*
X31201308Y-44701308D01*
X31176807Y-44723515D01*
X31150247Y-44743213D01*
X31121884Y-44760213D01*
X31091991Y-44774351D01*
X31060857Y-44785491D01*
X31028781Y-44793525D01*
X30996071Y-44798377D01*
X30963044Y-44800000D01*
X30086956Y-44800000D01*
X30053929Y-44798377D01*
X30021219Y-44793525D01*
X29989143Y-44785491D01*
X29958009Y-44774351D01*
X29928116Y-44760213D01*
X29899753Y-44743213D01*
X29873193Y-44723515D01*
X29848692Y-44701308D01*
X29826485Y-44676807D01*
X29806787Y-44650247D01*
X29789787Y-44621884D01*
X29775649Y-44591991D01*
X29764509Y-44560857D01*
X29756475Y-44528781D01*
X29751623Y-44496071D01*
X29750000Y-44463044D01*
X29750000Y-43336956D01*
X29751623Y-43303929D01*
X29756475Y-43271219D01*
X29764509Y-43239143D01*
X29775649Y-43208009D01*
X29789787Y-43178116D01*
X29806787Y-43149753D01*
X29826485Y-43123193D01*
X29848692Y-43098692D01*
X29873193Y-43076485D01*
X29899753Y-43056787D01*
X29928116Y-43039787D01*
X29958009Y-43025649D01*
X29989143Y-43014509D01*
X30021219Y-43006475D01*
X30053929Y-43001623D01*
X30086956Y-43000000D01*
X30963044Y-43000000D01*
X30996071Y-43001623D01*
X30996071Y-43001623D01*
G37*
D13*
X30525000Y-43900000D03*
D12*
G36*
X28946071Y-43001623D02*
X28978781Y-43006475D01*
X29010857Y-43014509D01*
X29041991Y-43025649D01*
X29071884Y-43039787D01*
X29100247Y-43056787D01*
X29126807Y-43076485D01*
X29151308Y-43098692D01*
X29173515Y-43123193D01*
X29193213Y-43149753D01*
X29210213Y-43178116D01*
X29224351Y-43208009D01*
X29235491Y-43239143D01*
X29243525Y-43271219D01*
X29248377Y-43303929D01*
X29250000Y-43336956D01*
X29250000Y-44463044D01*
X29248377Y-44496071D01*
X29243525Y-44528781D01*
X29235491Y-44560857D01*
X29224351Y-44591991D01*
X29210213Y-44621884D01*
X29193213Y-44650247D01*
X29173515Y-44676807D01*
X29151308Y-44701308D01*
X29126807Y-44723515D01*
X29100247Y-44743213D01*
X29071884Y-44760213D01*
X29041991Y-44774351D01*
X29010857Y-44785491D01*
X28978781Y-44793525D01*
X28946071Y-44798377D01*
X28913044Y-44800000D01*
X28036956Y-44800000D01*
X28003929Y-44798377D01*
X27971219Y-44793525D01*
X27939143Y-44785491D01*
X27908009Y-44774351D01*
X27878116Y-44760213D01*
X27849753Y-44743213D01*
X27823193Y-44723515D01*
X27798692Y-44701308D01*
X27776485Y-44676807D01*
X27756787Y-44650247D01*
X27739787Y-44621884D01*
X27725649Y-44591991D01*
X27714509Y-44560857D01*
X27706475Y-44528781D01*
X27701623Y-44496071D01*
X27700000Y-44463044D01*
X27700000Y-43336956D01*
X27701623Y-43303929D01*
X27706475Y-43271219D01*
X27714509Y-43239143D01*
X27725649Y-43208009D01*
X27739787Y-43178116D01*
X27756787Y-43149753D01*
X27776485Y-43123193D01*
X27798692Y-43098692D01*
X27823193Y-43076485D01*
X27849753Y-43056787D01*
X27878116Y-43039787D01*
X27908009Y-43025649D01*
X27939143Y-43014509D01*
X27971219Y-43006475D01*
X28003929Y-43001623D01*
X28036956Y-43000000D01*
X28913044Y-43000000D01*
X28946071Y-43001623D01*
X28946071Y-43001623D01*
G37*
D13*
X28475000Y-43900000D03*
G04 #@! TD*
D12*
G04 #@! TO.C,R5*
G36*
X28921071Y-51001623D02*
X28953781Y-51006475D01*
X28985857Y-51014509D01*
X29016991Y-51025649D01*
X29046884Y-51039787D01*
X29075247Y-51056787D01*
X29101807Y-51076485D01*
X29126308Y-51098692D01*
X29148515Y-51123193D01*
X29168213Y-51149753D01*
X29185213Y-51178116D01*
X29199351Y-51208009D01*
X29210491Y-51239143D01*
X29218525Y-51271219D01*
X29223377Y-51303929D01*
X29225000Y-51336956D01*
X29225000Y-52463044D01*
X29223377Y-52496071D01*
X29218525Y-52528781D01*
X29210491Y-52560857D01*
X29199351Y-52591991D01*
X29185213Y-52621884D01*
X29168213Y-52650247D01*
X29148515Y-52676807D01*
X29126308Y-52701308D01*
X29101807Y-52723515D01*
X29075247Y-52743213D01*
X29046884Y-52760213D01*
X29016991Y-52774351D01*
X28985857Y-52785491D01*
X28953781Y-52793525D01*
X28921071Y-52798377D01*
X28888044Y-52800000D01*
X28011956Y-52800000D01*
X27978929Y-52798377D01*
X27946219Y-52793525D01*
X27914143Y-52785491D01*
X27883009Y-52774351D01*
X27853116Y-52760213D01*
X27824753Y-52743213D01*
X27798193Y-52723515D01*
X27773692Y-52701308D01*
X27751485Y-52676807D01*
X27731787Y-52650247D01*
X27714787Y-52621884D01*
X27700649Y-52591991D01*
X27689509Y-52560857D01*
X27681475Y-52528781D01*
X27676623Y-52496071D01*
X27675000Y-52463044D01*
X27675000Y-51336956D01*
X27676623Y-51303929D01*
X27681475Y-51271219D01*
X27689509Y-51239143D01*
X27700649Y-51208009D01*
X27714787Y-51178116D01*
X27731787Y-51149753D01*
X27751485Y-51123193D01*
X27773692Y-51098692D01*
X27798193Y-51076485D01*
X27824753Y-51056787D01*
X27853116Y-51039787D01*
X27883009Y-51025649D01*
X27914143Y-51014509D01*
X27946219Y-51006475D01*
X27978929Y-51001623D01*
X28011956Y-51000000D01*
X28888044Y-51000000D01*
X28921071Y-51001623D01*
X28921071Y-51001623D01*
G37*
D13*
X28450000Y-51900000D03*
D12*
G36*
X30971071Y-51001623D02*
X31003781Y-51006475D01*
X31035857Y-51014509D01*
X31066991Y-51025649D01*
X31096884Y-51039787D01*
X31125247Y-51056787D01*
X31151807Y-51076485D01*
X31176308Y-51098692D01*
X31198515Y-51123193D01*
X31218213Y-51149753D01*
X31235213Y-51178116D01*
X31249351Y-51208009D01*
X31260491Y-51239143D01*
X31268525Y-51271219D01*
X31273377Y-51303929D01*
X31275000Y-51336956D01*
X31275000Y-52463044D01*
X31273377Y-52496071D01*
X31268525Y-52528781D01*
X31260491Y-52560857D01*
X31249351Y-52591991D01*
X31235213Y-52621884D01*
X31218213Y-52650247D01*
X31198515Y-52676807D01*
X31176308Y-52701308D01*
X31151807Y-52723515D01*
X31125247Y-52743213D01*
X31096884Y-52760213D01*
X31066991Y-52774351D01*
X31035857Y-52785491D01*
X31003781Y-52793525D01*
X30971071Y-52798377D01*
X30938044Y-52800000D01*
X30061956Y-52800000D01*
X30028929Y-52798377D01*
X29996219Y-52793525D01*
X29964143Y-52785491D01*
X29933009Y-52774351D01*
X29903116Y-52760213D01*
X29874753Y-52743213D01*
X29848193Y-52723515D01*
X29823692Y-52701308D01*
X29801485Y-52676807D01*
X29781787Y-52650247D01*
X29764787Y-52621884D01*
X29750649Y-52591991D01*
X29739509Y-52560857D01*
X29731475Y-52528781D01*
X29726623Y-52496071D01*
X29725000Y-52463044D01*
X29725000Y-51336956D01*
X29726623Y-51303929D01*
X29731475Y-51271219D01*
X29739509Y-51239143D01*
X29750649Y-51208009D01*
X29764787Y-51178116D01*
X29781787Y-51149753D01*
X29801485Y-51123193D01*
X29823692Y-51098692D01*
X29848193Y-51076485D01*
X29874753Y-51056787D01*
X29903116Y-51039787D01*
X29933009Y-51025649D01*
X29964143Y-51014509D01*
X29996219Y-51006475D01*
X30028929Y-51001623D01*
X30061956Y-51000000D01*
X30938044Y-51000000D01*
X30971071Y-51001623D01*
X30971071Y-51001623D01*
G37*
D13*
X30500000Y-51900000D03*
G04 #@! TD*
D12*
G04 #@! TO.C,R6*
G36*
X30996071Y-59001623D02*
X31028781Y-59006475D01*
X31060857Y-59014509D01*
X31091991Y-59025649D01*
X31121884Y-59039787D01*
X31150247Y-59056787D01*
X31176807Y-59076485D01*
X31201308Y-59098692D01*
X31223515Y-59123193D01*
X31243213Y-59149753D01*
X31260213Y-59178116D01*
X31274351Y-59208009D01*
X31285491Y-59239143D01*
X31293525Y-59271219D01*
X31298377Y-59303929D01*
X31300000Y-59336956D01*
X31300000Y-60463044D01*
X31298377Y-60496071D01*
X31293525Y-60528781D01*
X31285491Y-60560857D01*
X31274351Y-60591991D01*
X31260213Y-60621884D01*
X31243213Y-60650247D01*
X31223515Y-60676807D01*
X31201308Y-60701308D01*
X31176807Y-60723515D01*
X31150247Y-60743213D01*
X31121884Y-60760213D01*
X31091991Y-60774351D01*
X31060857Y-60785491D01*
X31028781Y-60793525D01*
X30996071Y-60798377D01*
X30963044Y-60800000D01*
X30086956Y-60800000D01*
X30053929Y-60798377D01*
X30021219Y-60793525D01*
X29989143Y-60785491D01*
X29958009Y-60774351D01*
X29928116Y-60760213D01*
X29899753Y-60743213D01*
X29873193Y-60723515D01*
X29848692Y-60701308D01*
X29826485Y-60676807D01*
X29806787Y-60650247D01*
X29789787Y-60621884D01*
X29775649Y-60591991D01*
X29764509Y-60560857D01*
X29756475Y-60528781D01*
X29751623Y-60496071D01*
X29750000Y-60463044D01*
X29750000Y-59336956D01*
X29751623Y-59303929D01*
X29756475Y-59271219D01*
X29764509Y-59239143D01*
X29775649Y-59208009D01*
X29789787Y-59178116D01*
X29806787Y-59149753D01*
X29826485Y-59123193D01*
X29848692Y-59098692D01*
X29873193Y-59076485D01*
X29899753Y-59056787D01*
X29928116Y-59039787D01*
X29958009Y-59025649D01*
X29989143Y-59014509D01*
X30021219Y-59006475D01*
X30053929Y-59001623D01*
X30086956Y-59000000D01*
X30963044Y-59000000D01*
X30996071Y-59001623D01*
X30996071Y-59001623D01*
G37*
D13*
X30525000Y-59900000D03*
D12*
G36*
X28946071Y-59001623D02*
X28978781Y-59006475D01*
X29010857Y-59014509D01*
X29041991Y-59025649D01*
X29071884Y-59039787D01*
X29100247Y-59056787D01*
X29126807Y-59076485D01*
X29151308Y-59098692D01*
X29173515Y-59123193D01*
X29193213Y-59149753D01*
X29210213Y-59178116D01*
X29224351Y-59208009D01*
X29235491Y-59239143D01*
X29243525Y-59271219D01*
X29248377Y-59303929D01*
X29250000Y-59336956D01*
X29250000Y-60463044D01*
X29248377Y-60496071D01*
X29243525Y-60528781D01*
X29235491Y-60560857D01*
X29224351Y-60591991D01*
X29210213Y-60621884D01*
X29193213Y-60650247D01*
X29173515Y-60676807D01*
X29151308Y-60701308D01*
X29126807Y-60723515D01*
X29100247Y-60743213D01*
X29071884Y-60760213D01*
X29041991Y-60774351D01*
X29010857Y-60785491D01*
X28978781Y-60793525D01*
X28946071Y-60798377D01*
X28913044Y-60800000D01*
X28036956Y-60800000D01*
X28003929Y-60798377D01*
X27971219Y-60793525D01*
X27939143Y-60785491D01*
X27908009Y-60774351D01*
X27878116Y-60760213D01*
X27849753Y-60743213D01*
X27823193Y-60723515D01*
X27798692Y-60701308D01*
X27776485Y-60676807D01*
X27756787Y-60650247D01*
X27739787Y-60621884D01*
X27725649Y-60591991D01*
X27714509Y-60560857D01*
X27706475Y-60528781D01*
X27701623Y-60496071D01*
X27700000Y-60463044D01*
X27700000Y-59336956D01*
X27701623Y-59303929D01*
X27706475Y-59271219D01*
X27714509Y-59239143D01*
X27725649Y-59208009D01*
X27739787Y-59178116D01*
X27756787Y-59149753D01*
X27776485Y-59123193D01*
X27798692Y-59098692D01*
X27823193Y-59076485D01*
X27849753Y-59056787D01*
X27878116Y-59039787D01*
X27908009Y-59025649D01*
X27939143Y-59014509D01*
X27971219Y-59006475D01*
X28003929Y-59001623D01*
X28036956Y-59000000D01*
X28913044Y-59000000D01*
X28946071Y-59001623D01*
X28946071Y-59001623D01*
G37*
D13*
X28475000Y-59900000D03*
G04 #@! TD*
D12*
G04 #@! TO.C,R7*
G36*
X28946071Y-67001623D02*
X28978781Y-67006475D01*
X29010857Y-67014509D01*
X29041991Y-67025649D01*
X29071884Y-67039787D01*
X29100247Y-67056787D01*
X29126807Y-67076485D01*
X29151308Y-67098692D01*
X29173515Y-67123193D01*
X29193213Y-67149753D01*
X29210213Y-67178116D01*
X29224351Y-67208009D01*
X29235491Y-67239143D01*
X29243525Y-67271219D01*
X29248377Y-67303929D01*
X29250000Y-67336956D01*
X29250000Y-68463044D01*
X29248377Y-68496071D01*
X29243525Y-68528781D01*
X29235491Y-68560857D01*
X29224351Y-68591991D01*
X29210213Y-68621884D01*
X29193213Y-68650247D01*
X29173515Y-68676807D01*
X29151308Y-68701308D01*
X29126807Y-68723515D01*
X29100247Y-68743213D01*
X29071884Y-68760213D01*
X29041991Y-68774351D01*
X29010857Y-68785491D01*
X28978781Y-68793525D01*
X28946071Y-68798377D01*
X28913044Y-68800000D01*
X28036956Y-68800000D01*
X28003929Y-68798377D01*
X27971219Y-68793525D01*
X27939143Y-68785491D01*
X27908009Y-68774351D01*
X27878116Y-68760213D01*
X27849753Y-68743213D01*
X27823193Y-68723515D01*
X27798692Y-68701308D01*
X27776485Y-68676807D01*
X27756787Y-68650247D01*
X27739787Y-68621884D01*
X27725649Y-68591991D01*
X27714509Y-68560857D01*
X27706475Y-68528781D01*
X27701623Y-68496071D01*
X27700000Y-68463044D01*
X27700000Y-67336956D01*
X27701623Y-67303929D01*
X27706475Y-67271219D01*
X27714509Y-67239143D01*
X27725649Y-67208009D01*
X27739787Y-67178116D01*
X27756787Y-67149753D01*
X27776485Y-67123193D01*
X27798692Y-67098692D01*
X27823193Y-67076485D01*
X27849753Y-67056787D01*
X27878116Y-67039787D01*
X27908009Y-67025649D01*
X27939143Y-67014509D01*
X27971219Y-67006475D01*
X28003929Y-67001623D01*
X28036956Y-67000000D01*
X28913044Y-67000000D01*
X28946071Y-67001623D01*
X28946071Y-67001623D01*
G37*
D13*
X28475000Y-67900000D03*
D12*
G36*
X30996071Y-67001623D02*
X31028781Y-67006475D01*
X31060857Y-67014509D01*
X31091991Y-67025649D01*
X31121884Y-67039787D01*
X31150247Y-67056787D01*
X31176807Y-67076485D01*
X31201308Y-67098692D01*
X31223515Y-67123193D01*
X31243213Y-67149753D01*
X31260213Y-67178116D01*
X31274351Y-67208009D01*
X31285491Y-67239143D01*
X31293525Y-67271219D01*
X31298377Y-67303929D01*
X31300000Y-67336956D01*
X31300000Y-68463044D01*
X31298377Y-68496071D01*
X31293525Y-68528781D01*
X31285491Y-68560857D01*
X31274351Y-68591991D01*
X31260213Y-68621884D01*
X31243213Y-68650247D01*
X31223515Y-68676807D01*
X31201308Y-68701308D01*
X31176807Y-68723515D01*
X31150247Y-68743213D01*
X31121884Y-68760213D01*
X31091991Y-68774351D01*
X31060857Y-68785491D01*
X31028781Y-68793525D01*
X30996071Y-68798377D01*
X30963044Y-68800000D01*
X30086956Y-68800000D01*
X30053929Y-68798377D01*
X30021219Y-68793525D01*
X29989143Y-68785491D01*
X29958009Y-68774351D01*
X29928116Y-68760213D01*
X29899753Y-68743213D01*
X29873193Y-68723515D01*
X29848692Y-68701308D01*
X29826485Y-68676807D01*
X29806787Y-68650247D01*
X29789787Y-68621884D01*
X29775649Y-68591991D01*
X29764509Y-68560857D01*
X29756475Y-68528781D01*
X29751623Y-68496071D01*
X29750000Y-68463044D01*
X29750000Y-67336956D01*
X29751623Y-67303929D01*
X29756475Y-67271219D01*
X29764509Y-67239143D01*
X29775649Y-67208009D01*
X29789787Y-67178116D01*
X29806787Y-67149753D01*
X29826485Y-67123193D01*
X29848692Y-67098692D01*
X29873193Y-67076485D01*
X29899753Y-67056787D01*
X29928116Y-67039787D01*
X29958009Y-67025649D01*
X29989143Y-67014509D01*
X30021219Y-67006475D01*
X30053929Y-67001623D01*
X30086956Y-67000000D01*
X30963044Y-67000000D01*
X30996071Y-67001623D01*
X30996071Y-67001623D01*
G37*
D13*
X30525000Y-67900000D03*
G04 #@! TD*
D12*
G04 #@! TO.C,R8*
G36*
X30996071Y-75001623D02*
X31028781Y-75006475D01*
X31060857Y-75014509D01*
X31091991Y-75025649D01*
X31121884Y-75039787D01*
X31150247Y-75056787D01*
X31176807Y-75076485D01*
X31201308Y-75098692D01*
X31223515Y-75123193D01*
X31243213Y-75149753D01*
X31260213Y-75178116D01*
X31274351Y-75208009D01*
X31285491Y-75239143D01*
X31293525Y-75271219D01*
X31298377Y-75303929D01*
X31300000Y-75336956D01*
X31300000Y-76463044D01*
X31298377Y-76496071D01*
X31293525Y-76528781D01*
X31285491Y-76560857D01*
X31274351Y-76591991D01*
X31260213Y-76621884D01*
X31243213Y-76650247D01*
X31223515Y-76676807D01*
X31201308Y-76701308D01*
X31176807Y-76723515D01*
X31150247Y-76743213D01*
X31121884Y-76760213D01*
X31091991Y-76774351D01*
X31060857Y-76785491D01*
X31028781Y-76793525D01*
X30996071Y-76798377D01*
X30963044Y-76800000D01*
X30086956Y-76800000D01*
X30053929Y-76798377D01*
X30021219Y-76793525D01*
X29989143Y-76785491D01*
X29958009Y-76774351D01*
X29928116Y-76760213D01*
X29899753Y-76743213D01*
X29873193Y-76723515D01*
X29848692Y-76701308D01*
X29826485Y-76676807D01*
X29806787Y-76650247D01*
X29789787Y-76621884D01*
X29775649Y-76591991D01*
X29764509Y-76560857D01*
X29756475Y-76528781D01*
X29751623Y-76496071D01*
X29750000Y-76463044D01*
X29750000Y-75336956D01*
X29751623Y-75303929D01*
X29756475Y-75271219D01*
X29764509Y-75239143D01*
X29775649Y-75208009D01*
X29789787Y-75178116D01*
X29806787Y-75149753D01*
X29826485Y-75123193D01*
X29848692Y-75098692D01*
X29873193Y-75076485D01*
X29899753Y-75056787D01*
X29928116Y-75039787D01*
X29958009Y-75025649D01*
X29989143Y-75014509D01*
X30021219Y-75006475D01*
X30053929Y-75001623D01*
X30086956Y-75000000D01*
X30963044Y-75000000D01*
X30996071Y-75001623D01*
X30996071Y-75001623D01*
G37*
D13*
X30525000Y-75900000D03*
D12*
G36*
X28946071Y-75001623D02*
X28978781Y-75006475D01*
X29010857Y-75014509D01*
X29041991Y-75025649D01*
X29071884Y-75039787D01*
X29100247Y-75056787D01*
X29126807Y-75076485D01*
X29151308Y-75098692D01*
X29173515Y-75123193D01*
X29193213Y-75149753D01*
X29210213Y-75178116D01*
X29224351Y-75208009D01*
X29235491Y-75239143D01*
X29243525Y-75271219D01*
X29248377Y-75303929D01*
X29250000Y-75336956D01*
X29250000Y-76463044D01*
X29248377Y-76496071D01*
X29243525Y-76528781D01*
X29235491Y-76560857D01*
X29224351Y-76591991D01*
X29210213Y-76621884D01*
X29193213Y-76650247D01*
X29173515Y-76676807D01*
X29151308Y-76701308D01*
X29126807Y-76723515D01*
X29100247Y-76743213D01*
X29071884Y-76760213D01*
X29041991Y-76774351D01*
X29010857Y-76785491D01*
X28978781Y-76793525D01*
X28946071Y-76798377D01*
X28913044Y-76800000D01*
X28036956Y-76800000D01*
X28003929Y-76798377D01*
X27971219Y-76793525D01*
X27939143Y-76785491D01*
X27908009Y-76774351D01*
X27878116Y-76760213D01*
X27849753Y-76743213D01*
X27823193Y-76723515D01*
X27798692Y-76701308D01*
X27776485Y-76676807D01*
X27756787Y-76650247D01*
X27739787Y-76621884D01*
X27725649Y-76591991D01*
X27714509Y-76560857D01*
X27706475Y-76528781D01*
X27701623Y-76496071D01*
X27700000Y-76463044D01*
X27700000Y-75336956D01*
X27701623Y-75303929D01*
X27706475Y-75271219D01*
X27714509Y-75239143D01*
X27725649Y-75208009D01*
X27739787Y-75178116D01*
X27756787Y-75149753D01*
X27776485Y-75123193D01*
X27798692Y-75098692D01*
X27823193Y-75076485D01*
X27849753Y-75056787D01*
X27878116Y-75039787D01*
X27908009Y-75025649D01*
X27939143Y-75014509D01*
X27971219Y-75006475D01*
X28003929Y-75001623D01*
X28036956Y-75000000D01*
X28913044Y-75000000D01*
X28946071Y-75001623D01*
X28946071Y-75001623D01*
G37*
D13*
X28475000Y-75900000D03*
G04 #@! TD*
D14*
G04 #@! TO.C,J1*
X22500000Y-85900000D03*
D15*
X22500000Y-88440000D03*
X22500000Y-90980000D03*
X22500000Y-93520000D03*
X22500000Y-96060000D03*
X22500000Y-98600000D03*
X22500000Y-101140000D03*
G04 #@! TD*
D14*
G04 #@! TO.C,J2*
X21500000Y-38900000D03*
D15*
X21500000Y-41440000D03*
X21500000Y-43980000D03*
X21500000Y-46520000D03*
X21500000Y-49060000D03*
X21500000Y-51600000D03*
X21500000Y-54140000D03*
X21500000Y-56680000D03*
G04 #@! TD*
M02*
