G04 #@! TF.GenerationSoftware,KiCad,Pcbnew,(5.0.0)*
G04 #@! TF.CreationDate,2018-11-13T10:35:00+02:00*
G04 #@! TF.ProjectId,led_matrix,6C65645F6D61747269782E6B69636164,rev?*
G04 #@! TF.SameCoordinates,Original*
G04 #@! TF.FileFunction,Soldermask,Bot*
G04 #@! TF.FilePolarity,Negative*
%FSLAX46Y46*%
G04 Gerber Fmt 4.6, Leading zero omitted, Abs format (unit mm)*
G04 Created by KiCad (PCBNEW (5.0.0)) date 11/13/18 10:35:00*
%MOMM*%
%LPD*%
G01*
G04 APERTURE LIST*
%ADD10R,2.200000X2.200000*%
%ADD11C,2.200000*%
%ADD12R,2.100000X2.100000*%
%ADD13O,2.100000X2.100000*%
%ADD14R,2.350000X1.000000*%
G04 APERTURE END LIST*
D10*
G04 #@! TO.C,D1*
X29500000Y-23900000D03*
D11*
X32040000Y-23900000D03*
G04 #@! TD*
G04 #@! TO.C,D2*
X32040000Y-31900000D03*
D10*
X29500000Y-31900000D03*
G04 #@! TD*
D11*
G04 #@! TO.C,D3*
X32040000Y-39900000D03*
D10*
X29500000Y-39900000D03*
G04 #@! TD*
G04 #@! TO.C,D4*
X29500000Y-47900000D03*
D11*
X32040000Y-47900000D03*
G04 #@! TD*
G04 #@! TO.C,D5*
X32040000Y-55900000D03*
D10*
X29500000Y-55900000D03*
G04 #@! TD*
G04 #@! TO.C,D6*
X29500000Y-63900000D03*
D11*
X32040000Y-63900000D03*
G04 #@! TD*
G04 #@! TO.C,D7*
X32040000Y-71900000D03*
D10*
X29500000Y-71900000D03*
G04 #@! TD*
G04 #@! TO.C,D8*
X29500000Y-79900000D03*
D11*
X32040000Y-79900000D03*
G04 #@! TD*
D10*
G04 #@! TO.C,D9*
X37500000Y-23900000D03*
D11*
X40040000Y-23900000D03*
G04 #@! TD*
D10*
G04 #@! TO.C,D10*
X37500000Y-31900000D03*
D11*
X40040000Y-31900000D03*
G04 #@! TD*
G04 #@! TO.C,D11*
X40040000Y-39900000D03*
D10*
X37500000Y-39900000D03*
G04 #@! TD*
G04 #@! TO.C,D12*
X37500000Y-47900000D03*
D11*
X40040000Y-47900000D03*
G04 #@! TD*
G04 #@! TO.C,D13*
X40040000Y-55900000D03*
D10*
X37500000Y-55900000D03*
G04 #@! TD*
G04 #@! TO.C,D14*
X37500000Y-63900000D03*
D11*
X40040000Y-63900000D03*
G04 #@! TD*
G04 #@! TO.C,D15*
X40040000Y-71900000D03*
D10*
X37500000Y-71900000D03*
G04 #@! TD*
G04 #@! TO.C,D16*
X37500000Y-79900000D03*
D11*
X40040000Y-79900000D03*
G04 #@! TD*
G04 #@! TO.C,D17*
X48040000Y-23900000D03*
D10*
X45500000Y-23900000D03*
G04 #@! TD*
D11*
G04 #@! TO.C,D18*
X48040000Y-31900000D03*
D10*
X45500000Y-31900000D03*
G04 #@! TD*
G04 #@! TO.C,D19*
X45500000Y-39900000D03*
D11*
X48040000Y-39900000D03*
G04 #@! TD*
G04 #@! TO.C,D20*
X48040000Y-47900000D03*
D10*
X45500000Y-47900000D03*
G04 #@! TD*
G04 #@! TO.C,D21*
X45500000Y-55900000D03*
D11*
X48040000Y-55900000D03*
G04 #@! TD*
G04 #@! TO.C,D22*
X48040000Y-63900000D03*
D10*
X45500000Y-63900000D03*
G04 #@! TD*
G04 #@! TO.C,D23*
X45500000Y-71900000D03*
D11*
X48040000Y-71900000D03*
G04 #@! TD*
G04 #@! TO.C,D24*
X48040000Y-79900000D03*
D10*
X45500000Y-79900000D03*
G04 #@! TD*
G04 #@! TO.C,D25*
X53500000Y-23900000D03*
D11*
X56040000Y-23900000D03*
G04 #@! TD*
G04 #@! TO.C,D26*
X56040000Y-31900000D03*
D10*
X53500000Y-31900000D03*
G04 #@! TD*
G04 #@! TO.C,D27*
X53500000Y-39900000D03*
D11*
X56040000Y-39900000D03*
G04 #@! TD*
G04 #@! TO.C,D28*
X56040000Y-47900000D03*
D10*
X53500000Y-47900000D03*
G04 #@! TD*
G04 #@! TO.C,D29*
X53500000Y-55900000D03*
D11*
X56040000Y-55900000D03*
G04 #@! TD*
G04 #@! TO.C,D30*
X56040000Y-63900000D03*
D10*
X53500000Y-63900000D03*
G04 #@! TD*
G04 #@! TO.C,D31*
X53500000Y-71900000D03*
D11*
X56040000Y-71900000D03*
G04 #@! TD*
G04 #@! TO.C,D32*
X56040000Y-79900000D03*
D10*
X53500000Y-79900000D03*
G04 #@! TD*
G04 #@! TO.C,D33*
X61500000Y-23900000D03*
D11*
X64040000Y-23900000D03*
G04 #@! TD*
D10*
G04 #@! TO.C,D34*
X61500000Y-31900000D03*
D11*
X64040000Y-31900000D03*
G04 #@! TD*
G04 #@! TO.C,D35*
X64040000Y-39900000D03*
D10*
X61500000Y-39900000D03*
G04 #@! TD*
G04 #@! TO.C,D36*
X61500000Y-47900000D03*
D11*
X64040000Y-47900000D03*
G04 #@! TD*
G04 #@! TO.C,D37*
X64040000Y-55900000D03*
D10*
X61500000Y-55900000D03*
G04 #@! TD*
G04 #@! TO.C,D38*
X61500000Y-63900000D03*
D11*
X64040000Y-63900000D03*
G04 #@! TD*
G04 #@! TO.C,D39*
X64040000Y-71900000D03*
D10*
X61500000Y-71900000D03*
G04 #@! TD*
G04 #@! TO.C,D40*
X61500000Y-79900000D03*
D11*
X64040000Y-79900000D03*
G04 #@! TD*
G04 #@! TO.C,D41*
X72040000Y-23900000D03*
D10*
X69500000Y-23900000D03*
G04 #@! TD*
D11*
G04 #@! TO.C,D42*
X72040000Y-31900000D03*
D10*
X69500000Y-31900000D03*
G04 #@! TD*
D11*
G04 #@! TO.C,D43*
X72040000Y-39900000D03*
D10*
X69500000Y-39900000D03*
G04 #@! TD*
G04 #@! TO.C,D44*
X69500000Y-47900000D03*
D11*
X72040000Y-47900000D03*
G04 #@! TD*
G04 #@! TO.C,D45*
X72040000Y-55900000D03*
D10*
X69500000Y-55900000D03*
G04 #@! TD*
G04 #@! TO.C,D46*
X69500000Y-63900000D03*
D11*
X72040000Y-63900000D03*
G04 #@! TD*
G04 #@! TO.C,D47*
X72040000Y-71900000D03*
D10*
X69500000Y-71900000D03*
G04 #@! TD*
G04 #@! TO.C,D48*
X69500000Y-79900000D03*
D11*
X72040000Y-79900000D03*
G04 #@! TD*
G04 #@! TO.C,D49*
X80040000Y-23900000D03*
D10*
X77500000Y-23900000D03*
G04 #@! TD*
G04 #@! TO.C,D50*
X77500000Y-31900000D03*
D11*
X80040000Y-31900000D03*
G04 #@! TD*
D10*
G04 #@! TO.C,D51*
X77500000Y-39900000D03*
D11*
X80040000Y-39900000D03*
G04 #@! TD*
G04 #@! TO.C,D52*
X80040000Y-47900000D03*
D10*
X77500000Y-47900000D03*
G04 #@! TD*
G04 #@! TO.C,D53*
X77500000Y-55900000D03*
D11*
X80040000Y-55900000D03*
G04 #@! TD*
G04 #@! TO.C,D54*
X80040000Y-63900000D03*
D10*
X77500000Y-63900000D03*
G04 #@! TD*
G04 #@! TO.C,D55*
X77500000Y-71900000D03*
D11*
X80040000Y-71900000D03*
G04 #@! TD*
G04 #@! TO.C,D56*
X80040000Y-79900000D03*
D10*
X77500000Y-79900000D03*
G04 #@! TD*
G04 #@! TO.C,D57*
X85500000Y-23900000D03*
D11*
X88040000Y-23900000D03*
G04 #@! TD*
G04 #@! TO.C,D58*
X88040000Y-31900000D03*
D10*
X85500000Y-31900000D03*
G04 #@! TD*
G04 #@! TO.C,D59*
X85500000Y-39900000D03*
D11*
X88040000Y-39900000D03*
G04 #@! TD*
G04 #@! TO.C,D60*
X88040000Y-47900000D03*
D10*
X85500000Y-47900000D03*
G04 #@! TD*
G04 #@! TO.C,D61*
X85500000Y-55900000D03*
D11*
X88040000Y-55900000D03*
G04 #@! TD*
G04 #@! TO.C,D62*
X88040000Y-63900000D03*
D10*
X85500000Y-63900000D03*
G04 #@! TD*
G04 #@! TO.C,D63*
X85500000Y-71900000D03*
D11*
X88040000Y-71900000D03*
G04 #@! TD*
G04 #@! TO.C,D64*
X88040000Y-79900000D03*
D10*
X85500000Y-79900000D03*
G04 #@! TD*
G04 #@! TO.C,D65*
X93500000Y-23900000D03*
D11*
X96040000Y-23900000D03*
G04 #@! TD*
G04 #@! TO.C,D66*
X96040000Y-31900000D03*
D10*
X93500000Y-31900000D03*
G04 #@! TD*
G04 #@! TO.C,D67*
X93500000Y-39900000D03*
D11*
X96040000Y-39900000D03*
G04 #@! TD*
D10*
G04 #@! TO.C,D68*
X93500000Y-47900000D03*
D11*
X96040000Y-47900000D03*
G04 #@! TD*
G04 #@! TO.C,D69*
X96515001Y-55900000D03*
D10*
X93975001Y-55900000D03*
G04 #@! TD*
G04 #@! TO.C,D70*
X93500000Y-63900000D03*
D11*
X96040000Y-63900000D03*
G04 #@! TD*
G04 #@! TO.C,D71*
X96040000Y-71900000D03*
D10*
X93500000Y-71900000D03*
G04 #@! TD*
G04 #@! TO.C,D72*
X93500000Y-79900000D03*
D11*
X96040000Y-79900000D03*
G04 #@! TD*
G04 #@! TO.C,D73*
X104040000Y-23900000D03*
D10*
X101500000Y-23900000D03*
G04 #@! TD*
G04 #@! TO.C,D74*
X101500000Y-31900000D03*
D11*
X104040000Y-31900000D03*
G04 #@! TD*
D10*
G04 #@! TO.C,D75*
X101500000Y-39900000D03*
D11*
X104040000Y-39900000D03*
G04 #@! TD*
D10*
G04 #@! TO.C,D76*
X101500000Y-47900000D03*
D11*
X104040000Y-47900000D03*
G04 #@! TD*
G04 #@! TO.C,D77*
X104040000Y-55900000D03*
D10*
X101500000Y-55900000D03*
G04 #@! TD*
G04 #@! TO.C,D78*
X101500000Y-63900000D03*
D11*
X104040000Y-63900000D03*
G04 #@! TD*
G04 #@! TO.C,D79*
X104040000Y-71900000D03*
D10*
X101500000Y-71900000D03*
G04 #@! TD*
G04 #@! TO.C,D80*
X101500000Y-79900000D03*
D11*
X104040000Y-79900000D03*
G04 #@! TD*
G04 #@! TO.C,D81*
X112040000Y-23900000D03*
D10*
X109500000Y-23900000D03*
G04 #@! TD*
G04 #@! TO.C,D82*
X109500000Y-31900000D03*
D11*
X112040000Y-31900000D03*
G04 #@! TD*
G04 #@! TO.C,D83*
X112040000Y-39900000D03*
D10*
X109500000Y-39900000D03*
G04 #@! TD*
G04 #@! TO.C,D84*
X109500000Y-47900000D03*
D11*
X112040000Y-47900000D03*
G04 #@! TD*
G04 #@! TO.C,D85*
X112040000Y-55900000D03*
D10*
X109500000Y-55900000D03*
G04 #@! TD*
G04 #@! TO.C,D86*
X109500000Y-63900000D03*
D11*
X112040000Y-63900000D03*
G04 #@! TD*
G04 #@! TO.C,D87*
X112040000Y-71900000D03*
D10*
X109500000Y-71900000D03*
G04 #@! TD*
G04 #@! TO.C,D88*
X109500000Y-79900000D03*
D11*
X112040000Y-79900000D03*
G04 #@! TD*
G04 #@! TO.C,D89*
X120040000Y-23900000D03*
D10*
X117500000Y-23900000D03*
G04 #@! TD*
G04 #@! TO.C,D90*
X117500000Y-31900000D03*
D11*
X120040000Y-31900000D03*
G04 #@! TD*
G04 #@! TO.C,D91*
X120040000Y-39900000D03*
D10*
X117500000Y-39900000D03*
G04 #@! TD*
D11*
G04 #@! TO.C,D92*
X120040000Y-47900000D03*
D10*
X117500000Y-47900000D03*
G04 #@! TD*
G04 #@! TO.C,D93*
X117500000Y-55900000D03*
D11*
X120040000Y-55900000D03*
G04 #@! TD*
G04 #@! TO.C,D94*
X120040000Y-63900000D03*
D10*
X117500000Y-63900000D03*
G04 #@! TD*
G04 #@! TO.C,D95*
X117500000Y-71900000D03*
D11*
X120040000Y-71900000D03*
G04 #@! TD*
G04 #@! TO.C,D96*
X120040000Y-79900000D03*
D10*
X117500000Y-79900000D03*
G04 #@! TD*
G04 #@! TO.C,D97*
X125500000Y-23900000D03*
D11*
X128040000Y-23900000D03*
G04 #@! TD*
D10*
G04 #@! TO.C,D98*
X125500000Y-31900000D03*
D11*
X128040000Y-31900000D03*
G04 #@! TD*
G04 #@! TO.C,D99*
X128040000Y-39900000D03*
D10*
X125500000Y-39900000D03*
G04 #@! TD*
D11*
G04 #@! TO.C,D100*
X128040000Y-47900000D03*
D10*
X125500000Y-47900000D03*
G04 #@! TD*
D11*
G04 #@! TO.C,D101*
X128040000Y-55900000D03*
D10*
X125500000Y-55900000D03*
G04 #@! TD*
G04 #@! TO.C,D102*
X125500000Y-63900000D03*
D11*
X128040000Y-63900000D03*
G04 #@! TD*
G04 #@! TO.C,D103*
X128040000Y-71900000D03*
D10*
X125500000Y-71900000D03*
G04 #@! TD*
G04 #@! TO.C,D104*
X125500000Y-79900000D03*
D11*
X128040000Y-79900000D03*
G04 #@! TD*
G04 #@! TO.C,D105*
X136040000Y-23900000D03*
D10*
X133500000Y-23900000D03*
G04 #@! TD*
G04 #@! TO.C,D106*
X133500000Y-31900000D03*
D11*
X136040000Y-31900000D03*
G04 #@! TD*
G04 #@! TO.C,D107*
X136040000Y-39900000D03*
D10*
X133500000Y-39900000D03*
G04 #@! TD*
D11*
G04 #@! TO.C,D108*
X136040000Y-47900000D03*
D10*
X133500000Y-47900000D03*
G04 #@! TD*
D11*
G04 #@! TO.C,D109*
X136040000Y-55900000D03*
D10*
X133500000Y-55900000D03*
G04 #@! TD*
G04 #@! TO.C,D110*
X133500000Y-63900000D03*
D11*
X136040000Y-63900000D03*
G04 #@! TD*
G04 #@! TO.C,D111*
X136040000Y-71900000D03*
D10*
X133500000Y-71900000D03*
G04 #@! TD*
G04 #@! TO.C,D112*
X133500000Y-79900000D03*
D11*
X136040000Y-79900000D03*
G04 #@! TD*
G04 #@! TO.C,D113*
X144040000Y-23900000D03*
D10*
X141500000Y-23900000D03*
G04 #@! TD*
G04 #@! TO.C,D114*
X141500000Y-31900000D03*
D11*
X144040000Y-31900000D03*
G04 #@! TD*
G04 #@! TO.C,D115*
X144040000Y-39900000D03*
D10*
X141500000Y-39900000D03*
G04 #@! TD*
G04 #@! TO.C,D116*
X141500000Y-47900000D03*
D11*
X144040000Y-47900000D03*
G04 #@! TD*
D10*
G04 #@! TO.C,D117*
X141500000Y-55900000D03*
D11*
X144040000Y-55900000D03*
G04 #@! TD*
G04 #@! TO.C,D118*
X144040000Y-63900000D03*
D10*
X141500000Y-63900000D03*
G04 #@! TD*
G04 #@! TO.C,D119*
X141500000Y-71900000D03*
D11*
X144040000Y-71900000D03*
G04 #@! TD*
G04 #@! TO.C,D120*
X144040000Y-79900000D03*
D10*
X141500000Y-79900000D03*
G04 #@! TD*
G04 #@! TO.C,D121*
X149500000Y-23900000D03*
D11*
X152040000Y-23900000D03*
G04 #@! TD*
G04 #@! TO.C,D122*
X152040000Y-31900000D03*
D10*
X149500000Y-31900000D03*
G04 #@! TD*
G04 #@! TO.C,D123*
X149500000Y-39900000D03*
D11*
X152040000Y-39900000D03*
G04 #@! TD*
G04 #@! TO.C,D124*
X152040000Y-47900000D03*
D10*
X149500000Y-47900000D03*
G04 #@! TD*
G04 #@! TO.C,D125*
X149500000Y-55900000D03*
D11*
X152040000Y-55900000D03*
G04 #@! TD*
G04 #@! TO.C,D126*
X152040000Y-63900000D03*
D10*
X149500000Y-63900000D03*
G04 #@! TD*
G04 #@! TO.C,D127*
X149500000Y-71900000D03*
D11*
X152040000Y-71900000D03*
G04 #@! TD*
G04 #@! TO.C,D128*
X152040000Y-79900000D03*
D10*
X149500000Y-79900000D03*
G04 #@! TD*
G04 #@! TO.C,D129*
X157500000Y-23900000D03*
D11*
X160040000Y-23900000D03*
G04 #@! TD*
G04 #@! TO.C,D130*
X160040000Y-31900000D03*
D10*
X157500000Y-31900000D03*
G04 #@! TD*
G04 #@! TO.C,D131*
X157500000Y-39900000D03*
D11*
X160040000Y-39900000D03*
G04 #@! TD*
G04 #@! TO.C,D132*
X160040000Y-47900000D03*
D10*
X157500000Y-47900000D03*
G04 #@! TD*
D11*
G04 #@! TO.C,D133*
X160040000Y-55900000D03*
D10*
X157500000Y-55900000D03*
G04 #@! TD*
D11*
G04 #@! TO.C,D134*
X160040000Y-63900000D03*
D10*
X157500000Y-63900000D03*
G04 #@! TD*
G04 #@! TO.C,D135*
X157500000Y-71900000D03*
D11*
X160040000Y-71900000D03*
G04 #@! TD*
G04 #@! TO.C,D136*
X160040000Y-79900000D03*
D10*
X157500000Y-79900000D03*
G04 #@! TD*
G04 #@! TO.C,D137*
X165500000Y-23900000D03*
D11*
X168040000Y-23900000D03*
G04 #@! TD*
G04 #@! TO.C,D138*
X168040000Y-31900000D03*
D10*
X165500000Y-31900000D03*
G04 #@! TD*
G04 #@! TO.C,D139*
X165500000Y-39900000D03*
D11*
X168040000Y-39900000D03*
G04 #@! TD*
G04 #@! TO.C,D140*
X168040000Y-47900000D03*
D10*
X165500000Y-47900000D03*
G04 #@! TD*
G04 #@! TO.C,D141*
X165500000Y-55900000D03*
D11*
X168040000Y-55900000D03*
G04 #@! TD*
G04 #@! TO.C,D142*
X168040000Y-63900000D03*
D10*
X165500000Y-63900000D03*
G04 #@! TD*
G04 #@! TO.C,D143*
X165500000Y-71900000D03*
D11*
X168040000Y-71900000D03*
G04 #@! TD*
G04 #@! TO.C,D144*
X168040000Y-79900000D03*
D10*
X165500000Y-79900000D03*
G04 #@! TD*
G04 #@! TO.C,D145*
X173500000Y-23900000D03*
D11*
X176040000Y-23900000D03*
G04 #@! TD*
G04 #@! TO.C,D146*
X176040000Y-31900000D03*
D10*
X173500000Y-31900000D03*
G04 #@! TD*
G04 #@! TO.C,D147*
X173500000Y-39900000D03*
D11*
X176040000Y-39900000D03*
G04 #@! TD*
G04 #@! TO.C,D148*
X176040000Y-47900000D03*
D10*
X173500000Y-47900000D03*
G04 #@! TD*
G04 #@! TO.C,D149*
X173500000Y-55900000D03*
D11*
X176040000Y-55900000D03*
G04 #@! TD*
G04 #@! TO.C,D150*
X176040000Y-63900000D03*
D10*
X173500000Y-63900000D03*
G04 #@! TD*
G04 #@! TO.C,D151*
X173500000Y-71900000D03*
D11*
X176040000Y-71900000D03*
G04 #@! TD*
G04 #@! TO.C,D152*
X176040000Y-79900000D03*
D10*
X173500000Y-79900000D03*
G04 #@! TD*
G04 #@! TO.C,D153*
X181500000Y-23900000D03*
D11*
X184040000Y-23900000D03*
G04 #@! TD*
G04 #@! TO.C,D154*
X184040000Y-31900000D03*
D10*
X181500000Y-31900000D03*
G04 #@! TD*
G04 #@! TO.C,D155*
X181500000Y-39900000D03*
D11*
X184040000Y-39900000D03*
G04 #@! TD*
G04 #@! TO.C,D156*
X184040000Y-47900000D03*
D10*
X181500000Y-47900000D03*
G04 #@! TD*
G04 #@! TO.C,D157*
X181500000Y-55900000D03*
D11*
X184040000Y-55900000D03*
G04 #@! TD*
G04 #@! TO.C,D158*
X184040000Y-63900000D03*
D10*
X181500000Y-63900000D03*
G04 #@! TD*
G04 #@! TO.C,D159*
X181500000Y-71900000D03*
D11*
X184040000Y-71900000D03*
G04 #@! TD*
G04 #@! TO.C,D160*
X184040000Y-79900000D03*
D10*
X181500000Y-79900000D03*
G04 #@! TD*
G04 #@! TO.C,D161*
X189500000Y-23900000D03*
D11*
X192040000Y-23900000D03*
G04 #@! TD*
G04 #@! TO.C,D162*
X192040000Y-31900000D03*
D10*
X189500000Y-31900000D03*
G04 #@! TD*
G04 #@! TO.C,D163*
X189500000Y-39900000D03*
D11*
X192040000Y-39900000D03*
G04 #@! TD*
D10*
G04 #@! TO.C,D164*
X189500000Y-47900000D03*
D11*
X192040000Y-47900000D03*
G04 #@! TD*
D10*
G04 #@! TO.C,D165*
X189500000Y-55900000D03*
D11*
X192040000Y-55900000D03*
G04 #@! TD*
G04 #@! TO.C,D166*
X192040000Y-63900000D03*
D10*
X189500000Y-63900000D03*
G04 #@! TD*
G04 #@! TO.C,D167*
X189500000Y-71900000D03*
D11*
X192040000Y-71900000D03*
G04 #@! TD*
G04 #@! TO.C,D168*
X192040000Y-79900000D03*
D10*
X189500000Y-79900000D03*
G04 #@! TD*
G04 #@! TO.C,D169*
X197500000Y-23900000D03*
D11*
X200040000Y-23900000D03*
G04 #@! TD*
G04 #@! TO.C,D170*
X200040000Y-31900000D03*
D10*
X197500000Y-31900000D03*
G04 #@! TD*
G04 #@! TO.C,D171*
X197500000Y-39900000D03*
D11*
X200040000Y-39900000D03*
G04 #@! TD*
G04 #@! TO.C,D172*
X200040000Y-47900000D03*
D10*
X197500000Y-47900000D03*
G04 #@! TD*
G04 #@! TO.C,D173*
X197500000Y-55900000D03*
D11*
X200040000Y-55900000D03*
G04 #@! TD*
G04 #@! TO.C,D174*
X200040000Y-63900000D03*
D10*
X197500000Y-63900000D03*
G04 #@! TD*
G04 #@! TO.C,D175*
X197500000Y-71900000D03*
D11*
X200040000Y-71900000D03*
G04 #@! TD*
G04 #@! TO.C,D176*
X200040000Y-79900000D03*
D10*
X197500000Y-79900000D03*
G04 #@! TD*
G04 #@! TO.C,D177*
X205500000Y-23900000D03*
D11*
X208040000Y-23900000D03*
G04 #@! TD*
G04 #@! TO.C,D178*
X208040000Y-31900000D03*
D10*
X205500000Y-31900000D03*
G04 #@! TD*
D11*
G04 #@! TO.C,D179*
X208040000Y-39900000D03*
D10*
X205500000Y-39900000D03*
G04 #@! TD*
D11*
G04 #@! TO.C,D180*
X208040000Y-47900000D03*
D10*
X205500000Y-47900000D03*
G04 #@! TD*
G04 #@! TO.C,D181*
X205500000Y-55900000D03*
D11*
X208040000Y-55900000D03*
G04 #@! TD*
G04 #@! TO.C,D182*
X208040000Y-63900000D03*
D10*
X205500000Y-63900000D03*
G04 #@! TD*
G04 #@! TO.C,D183*
X205500000Y-71900000D03*
D11*
X208040000Y-71900000D03*
G04 #@! TD*
G04 #@! TO.C,D184*
X208040000Y-79900000D03*
D10*
X205500000Y-79900000D03*
G04 #@! TD*
G04 #@! TO.C,D185*
X213500000Y-23900000D03*
D11*
X216040000Y-23900000D03*
G04 #@! TD*
G04 #@! TO.C,D186*
X216040000Y-31900000D03*
D10*
X213500000Y-31900000D03*
G04 #@! TD*
G04 #@! TO.C,D187*
X213500000Y-39900000D03*
D11*
X216040000Y-39900000D03*
G04 #@! TD*
G04 #@! TO.C,D188*
X216040000Y-47900000D03*
D10*
X213500000Y-47900000D03*
G04 #@! TD*
G04 #@! TO.C,D189*
X213500000Y-55900000D03*
D11*
X216040000Y-55900000D03*
G04 #@! TD*
G04 #@! TO.C,D190*
X216040000Y-63900000D03*
D10*
X213500000Y-63900000D03*
G04 #@! TD*
G04 #@! TO.C,D191*
X213500000Y-71900000D03*
D11*
X216040000Y-71900000D03*
G04 #@! TD*
G04 #@! TO.C,D192*
X216040000Y-79900000D03*
D10*
X213500000Y-79900000D03*
G04 #@! TD*
G04 #@! TO.C,D193*
X221500000Y-23900000D03*
D11*
X224040000Y-23900000D03*
G04 #@! TD*
D10*
G04 #@! TO.C,D194*
X221500000Y-31900000D03*
D11*
X224040000Y-31900000D03*
G04 #@! TD*
D10*
G04 #@! TO.C,D195*
X221500000Y-39900000D03*
D11*
X224040000Y-39900000D03*
G04 #@! TD*
G04 #@! TO.C,D196*
X224040000Y-47900000D03*
D10*
X221500000Y-47900000D03*
G04 #@! TD*
G04 #@! TO.C,D197*
X221500000Y-55900000D03*
D11*
X224040000Y-55900000D03*
G04 #@! TD*
G04 #@! TO.C,D198*
X224040000Y-63900000D03*
D10*
X221500000Y-63900000D03*
G04 #@! TD*
G04 #@! TO.C,D199*
X221500000Y-71900000D03*
D11*
X224040000Y-71900000D03*
G04 #@! TD*
G04 #@! TO.C,D200*
X224040000Y-79900000D03*
D10*
X221500000Y-79900000D03*
G04 #@! TD*
G04 #@! TO.C,D201*
X229500000Y-23900000D03*
D11*
X232040000Y-23900000D03*
G04 #@! TD*
G04 #@! TO.C,D202*
X232040000Y-31900000D03*
D10*
X229500000Y-31900000D03*
G04 #@! TD*
G04 #@! TO.C,D203*
X229500000Y-39900000D03*
D11*
X232040000Y-39900000D03*
G04 #@! TD*
G04 #@! TO.C,D204*
X232040000Y-47900000D03*
D10*
X229500000Y-47900000D03*
G04 #@! TD*
G04 #@! TO.C,D205*
X229500000Y-55900000D03*
D11*
X232040000Y-55900000D03*
G04 #@! TD*
G04 #@! TO.C,D206*
X232040000Y-63900000D03*
D10*
X229500000Y-63900000D03*
G04 #@! TD*
G04 #@! TO.C,D207*
X229500000Y-71900000D03*
D11*
X232040000Y-71900000D03*
G04 #@! TD*
G04 #@! TO.C,D208*
X232040000Y-79900000D03*
D10*
X229500000Y-79900000D03*
G04 #@! TD*
G04 #@! TO.C,D209*
X237500000Y-23900000D03*
D11*
X240040000Y-23900000D03*
G04 #@! TD*
G04 #@! TO.C,D210*
X240040000Y-31900000D03*
D10*
X237500000Y-31900000D03*
G04 #@! TD*
G04 #@! TO.C,D211*
X237500000Y-39900000D03*
D11*
X240040000Y-39900000D03*
G04 #@! TD*
G04 #@! TO.C,D212*
X240040000Y-47900000D03*
D10*
X237500000Y-47900000D03*
G04 #@! TD*
G04 #@! TO.C,D213*
X237500000Y-55900000D03*
D11*
X240040000Y-55900000D03*
G04 #@! TD*
G04 #@! TO.C,D214*
X240040000Y-63900000D03*
D10*
X237500000Y-63900000D03*
G04 #@! TD*
G04 #@! TO.C,D215*
X237500000Y-71900000D03*
D11*
X240040000Y-71900000D03*
G04 #@! TD*
G04 #@! TO.C,D216*
X240040000Y-79900000D03*
D10*
X237500000Y-79900000D03*
G04 #@! TD*
G04 #@! TO.C,D217*
X245500000Y-23900000D03*
D11*
X248040000Y-23900000D03*
G04 #@! TD*
G04 #@! TO.C,D218*
X248040000Y-31900000D03*
D10*
X245500000Y-31900000D03*
G04 #@! TD*
G04 #@! TO.C,D219*
X245500000Y-39900000D03*
D11*
X248040000Y-39900000D03*
G04 #@! TD*
G04 #@! TO.C,D220*
X248040000Y-47900000D03*
D10*
X245500000Y-47900000D03*
G04 #@! TD*
G04 #@! TO.C,D221*
X245500000Y-55900000D03*
D11*
X248040000Y-55900000D03*
G04 #@! TD*
G04 #@! TO.C,D222*
X248040000Y-63900000D03*
D10*
X245500000Y-63900000D03*
G04 #@! TD*
G04 #@! TO.C,D223*
X245500000Y-71900000D03*
D11*
X248040000Y-71900000D03*
G04 #@! TD*
G04 #@! TO.C,D224*
X248040000Y-79900000D03*
D10*
X245500000Y-79900000D03*
G04 #@! TD*
G04 #@! TO.C,D225*
X253500000Y-23900000D03*
D11*
X256040000Y-23900000D03*
G04 #@! TD*
G04 #@! TO.C,D226*
X256040000Y-31900000D03*
D10*
X253500000Y-31900000D03*
G04 #@! TD*
G04 #@! TO.C,D227*
X253500000Y-39900000D03*
D11*
X256040000Y-39900000D03*
G04 #@! TD*
G04 #@! TO.C,D228*
X256040000Y-47900000D03*
D10*
X253500000Y-47900000D03*
G04 #@! TD*
G04 #@! TO.C,D229*
X253500000Y-55900000D03*
D11*
X256040000Y-55900000D03*
G04 #@! TD*
G04 #@! TO.C,D230*
X256040000Y-63900000D03*
D10*
X253500000Y-63900000D03*
G04 #@! TD*
G04 #@! TO.C,D231*
X253500000Y-71900000D03*
D11*
X256040000Y-71900000D03*
G04 #@! TD*
G04 #@! TO.C,D232*
X256040000Y-79900000D03*
D10*
X253500000Y-79900000D03*
G04 #@! TD*
G04 #@! TO.C,D233*
X261500000Y-23900000D03*
D11*
X264040000Y-23900000D03*
G04 #@! TD*
G04 #@! TO.C,D234*
X264040000Y-31900000D03*
D10*
X261500000Y-31900000D03*
G04 #@! TD*
G04 #@! TO.C,D235*
X261500000Y-39900000D03*
D11*
X264040000Y-39900000D03*
G04 #@! TD*
G04 #@! TO.C,D236*
X264040000Y-47900000D03*
D10*
X261500000Y-47900000D03*
G04 #@! TD*
G04 #@! TO.C,D237*
X261500000Y-55900000D03*
D11*
X264040000Y-55900000D03*
G04 #@! TD*
G04 #@! TO.C,D238*
X264040000Y-63900000D03*
D10*
X261500000Y-63900000D03*
G04 #@! TD*
G04 #@! TO.C,D239*
X261500000Y-71900000D03*
D11*
X264040000Y-71900000D03*
G04 #@! TD*
G04 #@! TO.C,D240*
X264040000Y-79900000D03*
D10*
X261500000Y-79900000D03*
G04 #@! TD*
G04 #@! TO.C,D241*
X269500000Y-23900000D03*
D11*
X272040000Y-23900000D03*
G04 #@! TD*
G04 #@! TO.C,D242*
X272040000Y-31900000D03*
D10*
X269500000Y-31900000D03*
G04 #@! TD*
G04 #@! TO.C,D243*
X269500000Y-39900000D03*
D11*
X272040000Y-39900000D03*
G04 #@! TD*
G04 #@! TO.C,D244*
X272040000Y-47900000D03*
D10*
X269500000Y-47900000D03*
G04 #@! TD*
G04 #@! TO.C,D245*
X269500000Y-55900000D03*
D11*
X272040000Y-55900000D03*
G04 #@! TD*
G04 #@! TO.C,D246*
X272040000Y-63900000D03*
D10*
X269500000Y-63900000D03*
G04 #@! TD*
G04 #@! TO.C,D247*
X269500000Y-71900000D03*
D11*
X272040000Y-71900000D03*
G04 #@! TD*
G04 #@! TO.C,D248*
X272040000Y-79900000D03*
D10*
X269500000Y-79900000D03*
G04 #@! TD*
G04 #@! TO.C,D249*
X277500000Y-23900000D03*
D11*
X280040000Y-23900000D03*
G04 #@! TD*
G04 #@! TO.C,D250*
X280040000Y-31900000D03*
D10*
X277500000Y-31900000D03*
G04 #@! TD*
G04 #@! TO.C,D251*
X277500000Y-39900000D03*
D11*
X280040000Y-39900000D03*
G04 #@! TD*
G04 #@! TO.C,D252*
X280040000Y-47900000D03*
D10*
X277500000Y-47900000D03*
G04 #@! TD*
G04 #@! TO.C,D253*
X277500000Y-55900000D03*
D11*
X280040000Y-55900000D03*
G04 #@! TD*
G04 #@! TO.C,D254*
X280040000Y-63900000D03*
D10*
X277500000Y-63900000D03*
G04 #@! TD*
G04 #@! TO.C,D255*
X277500000Y-71900000D03*
D11*
X280040000Y-71900000D03*
G04 #@! TD*
G04 #@! TO.C,D256*
X280040000Y-79900000D03*
D10*
X277500000Y-79900000D03*
G04 #@! TD*
D12*
G04 #@! TO.C,J1*
X22500000Y-85900000D03*
D13*
X22500000Y-88440000D03*
X22500000Y-90980000D03*
X22500000Y-93520000D03*
X22500000Y-96060000D03*
X22500000Y-98600000D03*
X22500000Y-101140000D03*
G04 #@! TD*
D12*
G04 #@! TO.C,J2*
X21500000Y-38900000D03*
D13*
X21500000Y-41440000D03*
X21500000Y-43980000D03*
X21500000Y-46520000D03*
X21500000Y-49060000D03*
X21500000Y-51600000D03*
X21500000Y-54140000D03*
X21500000Y-56680000D03*
G04 #@! TD*
D14*
G04 #@! TO.C,U1*
X62200000Y-98615000D03*
X62200000Y-97345000D03*
X62200000Y-96075000D03*
X62200000Y-94805000D03*
X62200000Y-93535000D03*
X62200000Y-92265000D03*
X62200000Y-90995000D03*
X62200000Y-89725000D03*
X62200000Y-88455000D03*
X62200000Y-87185000D03*
X52800000Y-87185000D03*
X52800000Y-88455000D03*
X52800000Y-89725000D03*
X52800000Y-90995000D03*
X52800000Y-92265000D03*
X52800000Y-93535000D03*
X52800000Y-94805000D03*
X52800000Y-96075000D03*
X52800000Y-97345000D03*
X52800000Y-98615000D03*
G04 #@! TD*
G04 #@! TO.C,U2*
X116800000Y-98615000D03*
X116800000Y-97345000D03*
X116800000Y-96075000D03*
X116800000Y-94805000D03*
X116800000Y-93535000D03*
X116800000Y-92265000D03*
X116800000Y-90995000D03*
X116800000Y-89725000D03*
X116800000Y-88455000D03*
X116800000Y-87185000D03*
X126200000Y-87185000D03*
X126200000Y-88455000D03*
X126200000Y-89725000D03*
X126200000Y-90995000D03*
X126200000Y-92265000D03*
X126200000Y-93535000D03*
X126200000Y-94805000D03*
X126200000Y-96075000D03*
X126200000Y-97345000D03*
X126200000Y-98615000D03*
G04 #@! TD*
G04 #@! TO.C,U3*
X180800000Y-98615000D03*
X180800000Y-97345000D03*
X180800000Y-96075000D03*
X180800000Y-94805000D03*
X180800000Y-93535000D03*
X180800000Y-92265000D03*
X180800000Y-90995000D03*
X180800000Y-89725000D03*
X180800000Y-88455000D03*
X180800000Y-87185000D03*
X190200000Y-87185000D03*
X190200000Y-88455000D03*
X190200000Y-89725000D03*
X190200000Y-90995000D03*
X190200000Y-92265000D03*
X190200000Y-93535000D03*
X190200000Y-94805000D03*
X190200000Y-96075000D03*
X190200000Y-97345000D03*
X190200000Y-98615000D03*
G04 #@! TD*
G04 #@! TO.C,U4*
X254200000Y-98615000D03*
X254200000Y-97345000D03*
X254200000Y-96075000D03*
X254200000Y-94805000D03*
X254200000Y-93535000D03*
X254200000Y-92265000D03*
X254200000Y-90995000D03*
X254200000Y-89725000D03*
X254200000Y-88455000D03*
X254200000Y-87185000D03*
X244800000Y-87185000D03*
X244800000Y-88455000D03*
X244800000Y-89725000D03*
X244800000Y-90995000D03*
X244800000Y-92265000D03*
X244800000Y-93535000D03*
X244800000Y-94805000D03*
X244800000Y-96075000D03*
X244800000Y-97345000D03*
X244800000Y-98615000D03*
G04 #@! TD*
M02*
