G04 #@! TF.GenerationSoftware,KiCad,Pcbnew,(5.0.0)*
G04 #@! TF.CreationDate,2018-11-13T10:34:59+02:00*
G04 #@! TF.ProjectId,led_matrix,6C65645F6D61747269782E6B69636164,rev?*
G04 #@! TF.SameCoordinates,Original*
G04 #@! TF.FileFunction,Paste,Bot*
G04 #@! TF.FilePolarity,Positive*
%FSLAX46Y46*%
G04 Gerber Fmt 4.6, Leading zero omitted, Abs format (unit mm)*
G04 Created by KiCad (PCBNEW (5.0.0)) date 11/13/18 10:34:59*
%MOMM*%
%LPD*%
G01*
G04 APERTURE LIST*
%ADD10R,1.950000X0.600000*%
G04 APERTURE END LIST*
D10*
G04 #@! TO.C,U1*
X62200000Y-98615000D03*
X62200000Y-97345000D03*
X62200000Y-96075000D03*
X62200000Y-94805000D03*
X62200000Y-93535000D03*
X62200000Y-92265000D03*
X62200000Y-90995000D03*
X62200000Y-89725000D03*
X62200000Y-88455000D03*
X62200000Y-87185000D03*
X52800000Y-87185000D03*
X52800000Y-88455000D03*
X52800000Y-89725000D03*
X52800000Y-90995000D03*
X52800000Y-92265000D03*
X52800000Y-93535000D03*
X52800000Y-94805000D03*
X52800000Y-96075000D03*
X52800000Y-97345000D03*
X52800000Y-98615000D03*
G04 #@! TD*
G04 #@! TO.C,U2*
X116800000Y-98615000D03*
X116800000Y-97345000D03*
X116800000Y-96075000D03*
X116800000Y-94805000D03*
X116800000Y-93535000D03*
X116800000Y-92265000D03*
X116800000Y-90995000D03*
X116800000Y-89725000D03*
X116800000Y-88455000D03*
X116800000Y-87185000D03*
X126200000Y-87185000D03*
X126200000Y-88455000D03*
X126200000Y-89725000D03*
X126200000Y-90995000D03*
X126200000Y-92265000D03*
X126200000Y-93535000D03*
X126200000Y-94805000D03*
X126200000Y-96075000D03*
X126200000Y-97345000D03*
X126200000Y-98615000D03*
G04 #@! TD*
G04 #@! TO.C,U3*
X180800000Y-98615000D03*
X180800000Y-97345000D03*
X180800000Y-96075000D03*
X180800000Y-94805000D03*
X180800000Y-93535000D03*
X180800000Y-92265000D03*
X180800000Y-90995000D03*
X180800000Y-89725000D03*
X180800000Y-88455000D03*
X180800000Y-87185000D03*
X190200000Y-87185000D03*
X190200000Y-88455000D03*
X190200000Y-89725000D03*
X190200000Y-90995000D03*
X190200000Y-92265000D03*
X190200000Y-93535000D03*
X190200000Y-94805000D03*
X190200000Y-96075000D03*
X190200000Y-97345000D03*
X190200000Y-98615000D03*
G04 #@! TD*
G04 #@! TO.C,U4*
X254200000Y-98615000D03*
X254200000Y-97345000D03*
X254200000Y-96075000D03*
X254200000Y-94805000D03*
X254200000Y-93535000D03*
X254200000Y-92265000D03*
X254200000Y-90995000D03*
X254200000Y-89725000D03*
X254200000Y-88455000D03*
X254200000Y-87185000D03*
X244800000Y-87185000D03*
X244800000Y-88455000D03*
X244800000Y-89725000D03*
X244800000Y-90995000D03*
X244800000Y-92265000D03*
X244800000Y-93535000D03*
X244800000Y-94805000D03*
X244800000Y-96075000D03*
X244800000Y-97345000D03*
X244800000Y-98615000D03*
G04 #@! TD*
M02*
