M48
;DRILL file {KiCad (5.0.0)} date 11/13/18 10:37:03
;FORMAT={-:-/ absolute / metric / decimal}
FMAT,2
METRIC,TZ
T1C0.600
T2C0.900
T3C1.000
%
G90
G05
M71
T1
X48.5Y-84.9
X48.5Y-86.9
X64.6Y-88.4
X64.6Y-89.8
X112.5Y-84.9
X112.5Y-86.9
X128.7Y-88.4
X128.7Y-89.8
X176.5Y-84.9
X176.5Y-86.9
X192.5Y-88.4
X192.6Y-89.9
X240.5Y-84.9
X240.5Y-86.9
X256.5Y-88.5
X256.5Y-89.9
T2
X101.5Y-47.9
X104.04Y-47.9
X93.5Y-31.9
X96.04Y-31.9
X69.5Y-79.9
X72.04Y-79.9
X61.5Y-39.9
X64.04Y-39.9
X221.5Y-79.9
X224.04Y-79.9
X61.5Y-31.9
X64.04Y-31.9
X213.5Y-71.9
X216.04Y-71.9
X45.5Y-39.9
X48.04Y-39.9
X277.5Y-63.9
X280.04Y-63.9
X213.5Y-47.9
X216.04Y-47.9
X37.5Y-39.9
X40.04Y-39.9
X261.5Y-55.9
X264.04Y-55.9
X205.5Y-23.9
X208.04Y-23.9
X149.5Y-55.9
X152.04Y-55.9
X245.5Y-31.9
X248.04Y-31.9
X189.5Y-63.9
X192.04Y-63.9
X149.5Y-31.9
X152.04Y-31.9
X29.5Y-79.9
X32.04Y-79.9
X245.5Y-23.9
X248.04Y-23.9
X157.5Y-63.9
X160.04Y-63.9
X141.5Y-31.9
X144.04Y-31.9
X45.5Y-79.9
X48.04Y-79.9
X237.5Y-47.9
X240.04Y-47.9
X165.5Y-63.9
X168.04Y-63.9
X133.5Y-23.9
X136.04Y-23.9
X45.5Y-47.9
X48.04Y-47.9
X253.5Y-39.9
X256.04Y-39.9
X181.5Y-63.9
X184.04Y-63.9
X125.5Y-47.9
X128.04Y-47.9
X245.5Y-55.9
X248.04Y-55.9
X165.5Y-31.9
X168.04Y-31.9
X109.5Y-47.9
X112.04Y-47.9
X229.5Y-47.9
X232.04Y-47.9
X173.5Y-31.9
X176.04Y-31.9
X85.5Y-71.9
X88.04Y-71.9
X85.5Y-55.9
X88.04Y-55.9
X109.5Y-79.9
X112.04Y-79.9
X101.5Y-23.9
X104.04Y-23.9
X85.5Y-63.9
X88.04Y-63.9
X77.5Y-79.9
X80.04Y-79.9
X69.5Y-47.9
X72.04Y-47.9
X221.5Y-55.9
X224.04Y-55.9
X61.5Y-47.9
X64.04Y-47.9
X213.5Y-63.9
X216.04Y-63.9
X45.5Y-23.9
X48.04Y-23.9
X277.5Y-47.9
X280.04Y-47.9
X205.5Y-79.9
X208.04Y-79.9
X37.5Y-31.9
X40.04Y-31.9
X269.5Y-79.9
X272.04Y-79.9
X197.5Y-71.9
X200.04Y-71.9
X157.5Y-23.9
X160.04Y-23.9
X53.5Y-39.9
X56.04Y-39.9
X229.5Y-63.9
X232.04Y-63.9
X181.5Y-31.9
X184.04Y-31.9
X141.5Y-79.9
X144.04Y-79.9
X269.5Y-63.9
X272.04Y-63.9
X165.5Y-79.9
X168.04Y-79.9
X141.5Y-39.9
X144.04Y-39.9
X229.5Y-71.9
X232.04Y-71.9
X197.5Y-23.9
X200.04Y-23.9
X125.5Y-71.9
X128.04Y-71.9
X29.5Y-63.9
X32.04Y-63.9
X277.5Y-55.9
X280.04Y-55.9
X157.5Y-31.9
X160.04Y-31.9
X117.5Y-23.9
X120.04Y-23.9
X29.5Y-39.9
X32.04Y-39.9
X253.5Y-23.9
X256.04Y-23.9
X197.5Y-79.9
X200.04Y-79.9
X93.975Y-55.9
X96.515Y-55.9
X237.5Y-39.9
X240.04Y-39.9
X173.5Y-23.9
X176.04Y-23.9
X117.5Y-79.9
X120.04Y-79.9
X117.5Y-39.9
X120.04Y-39.9
X125.5Y-79.9
X128.04Y-79.9
X93.5Y-71.9
X96.04Y-71.9
X101.5Y-63.9
X104.04Y-63.9
X77.5Y-39.9
X80.04Y-39.9
X77.5Y-71.9
X80.04Y-71.9
X69.5Y-39.9
X72.04Y-39.9
X221.5Y-47.9
X224.04Y-47.9
X53.5Y-79.9
X56.04Y-79.9
X277.5Y-79.9
X280.04Y-79.9
X205.5Y-63.9
X208.04Y-63.9
X37.5Y-71.9
X40.04Y-71.9
X277.5Y-39.9
X280.04Y-39.9
X213.5Y-31.9
X216.04Y-31.9
X29.5Y-47.9
X32.04Y-47.9
X269.5Y-71.9
X272.04Y-71.9
X197.5Y-63.9
X200.04Y-63.9
X149.5Y-23.9
X152.04Y-23.9
X229.5Y-39.9
X232.04Y-39.9
X173.5Y-79.9
X176.04Y-79.9
X133.5Y-79.9
X136.04Y-79.9
X237.5Y-79.9
X240.04Y-79.9
X181.5Y-71.9
X184.04Y-71.9
X141.5Y-47.9
X144.04Y-47.9
X61.5Y-23.9
X64.04Y-23.9
X229.5Y-79.9
X232.04Y-79.9
X189.5Y-55.9
X192.04Y-55.9
X101.5Y-71.9
X104.04Y-71.9
X37.5Y-79.9
X40.04Y-79.9
X261.5Y-39.9
X264.04Y-39.9
X181.5Y-39.9
X184.04Y-39.9
X125.5Y-31.9
X128.04Y-31.9
X245.5Y-47.9
X248.04Y-47.9
X189.5Y-71.9
X192.04Y-71.9
X101.5Y-31.9
X104.04Y-31.9
X229.5Y-55.9
X232.04Y-55.9
X165.5Y-47.9
X168.04Y-47.9
X109.5Y-63.9
X112.04Y-63.9
X93.5Y-79.9
X96.04Y-79.9
X101.5Y-55.9
X104.04Y-55.9
X93.5Y-23.9
X96.04Y-23.9
X77.5Y-55.9
X80.04Y-55.9
X77.5Y-63.9
X80.04Y-63.9
X221.5Y-39.9
X224.04Y-39.9
X69.5Y-23.9
X72.04Y-23.9
X221.5Y-71.9
X224.04Y-71.9
X53.5Y-55.9
X56.04Y-55.9
X213.5Y-39.9
X216.04Y-39.9
X37.5Y-23.9
X40.04Y-23.9
X277.5Y-23.9
X280.04Y-23.9
X205.5Y-71.9
X208.04Y-71.9
X269.5Y-47.9
X272.04Y-47.9
X197.5Y-55.9
X200.04Y-55.9
X149.5Y-79.9
X152.04Y-79.9
X61.5Y-63.9
X64.04Y-63.9
X237.5Y-23.9
X240.04Y-23.9
X189.5Y-31.9
X192.04Y-31.9
X141.5Y-71.9
X144.04Y-71.9
X237.5Y-31.9
X240.04Y-31.9
X181.5Y-47.9
X184.04Y-47.9
X133.5Y-71.9
X136.04Y-71.9
X53.5Y-71.9
X56.04Y-71.9
X261.5Y-79.9
X264.04Y-79.9
X189.5Y-23.9
X192.04Y-23.9
X125.5Y-55.9
X128.04Y-55.9
X29.5Y-23.9
X32.04Y-23.9
X277.5Y-31.9
X280.04Y-31.9
X181.5Y-23.9
X184.04Y-23.9
X125.5Y-23.9
X128.04Y-23.9
X237.5Y-63.9
X240.04Y-63.9
X173.5Y-55.9
X176.04Y-55.9
X85.5Y-79.9
X88.04Y-79.9
X165.5Y-23.9
X168.04Y-23.9
X109.5Y-55.9
X112.04Y-55.9
X117.5Y-71.9
X120.04Y-71.9
X101.5Y-39.9
X104.04Y-39.9
X85.5Y-39.9
X88.04Y-39.9
X77.5Y-47.9
X80.04Y-47.9
X69.5Y-63.9
X72.04Y-63.9
X221.5Y-31.9
X224.04Y-31.9
X69.5Y-31.9
X72.04Y-31.9
X229.5Y-31.9
X232.04Y-31.9
X53.5Y-47.9
X56.04Y-47.9
X213.5Y-23.9
X216.04Y-23.9
X37.5Y-63.9
X40.04Y-63.9
X261.5Y-71.9
X264.04Y-71.9
X205.5Y-55.9
X208.04Y-55.9
X253.5Y-79.9
X256.04Y-79.9
X197.5Y-39.9
X200.04Y-39.9
X149.5Y-71.9
X152.04Y-71.9
X69.5Y-71.9
X72.04Y-71.9
X253.5Y-31.9
X256.04Y-31.9
X181.5Y-79.9
X184.04Y-79.9
X141.5Y-23.9
X144.04Y-23.9
X45.5Y-63.9
X48.04Y-63.9
X261.5Y-63.9
X264.04Y-63.9
X157.5Y-39.9
X160.04Y-39.9
X133.5Y-55.9
X136.04Y-55.9
X29.5Y-31.9
X32.04Y-31.9
X269.5Y-23.9
X272.04Y-23.9
X173.5Y-63.9
X176.04Y-63.9
X101.5Y-79.9
X104.04Y-79.9
X261.5Y-23.9
X264.04Y-23.9
X181.5Y-55.9
X184.04Y-55.9
X117.5Y-63.9
X120.04Y-63.9
X261.5Y-31.9
X264.04Y-31.9
X157.5Y-55.9
X160.04Y-55.9
X85.5Y-23.9
X88.04Y-23.9
X165.5Y-39.9
X168.04Y-39.9
X93.5Y-47.9
X96.04Y-47.9
X133.5Y-63.9
X136.04Y-63.9
X85.5Y-31.9
X88.04Y-31.9
X93.5Y-63.9
X96.04Y-63.9
X77.5Y-31.9
X80.04Y-31.9
X69.5Y-55.9
X72.04Y-55.9
X221.5Y-63.9
X224.04Y-63.9
X61.5Y-79.9
X64.04Y-79.9
X221.5Y-23.9
X224.04Y-23.9
X53.5Y-31.9
X56.04Y-31.9
X277.5Y-71.9
X280.04Y-71.9
X213.5Y-55.9
X216.04Y-55.9
X37.5Y-55.9
X40.04Y-55.9
X269.5Y-39.9
X272.04Y-39.9
X205.5Y-47.9
X208.04Y-47.9
X253.5Y-71.9
X256.04Y-71.9
X197.5Y-31.9
X200.04Y-31.9
X149.5Y-39.9
X152.04Y-39.9
X53.5Y-63.9
X56.04Y-63.9
X237.5Y-71.9
X240.04Y-71.9
X173.5Y-39.9
X176.04Y-39.9
X141.5Y-63.9
X144.04Y-63.9
X45.5Y-55.9
X48.04Y-55.9
X269.5Y-55.9
X272.04Y-55.9
X197.5Y-47.9
X200.04Y-47.9
X133.5Y-39.9
X136.04Y-39.9
X29.5Y-55.9
X32.04Y-55.9
X261.5Y-47.9
X264.04Y-47.9
X157.5Y-47.9
X160.04Y-47.9
X117.5Y-55.9
X120.04Y-55.9
X245.5Y-71.9
X248.04Y-71.9
X173.5Y-47.9
X176.04Y-47.9
X117.5Y-47.9
X120.04Y-47.9
X245.5Y-39.9
X248.04Y-39.9
X165.5Y-55.9
X168.04Y-55.9
X125.5Y-39.9
X128.04Y-39.9
X173.5Y-71.9
X176.04Y-71.9
X109.5Y-39.9
X112.04Y-39.9
X133.5Y-47.9
X136.04Y-47.9
X85.5Y-47.9
X88.04Y-47.9
X93.5Y-39.9
X96.04Y-39.9
X77.5Y-23.9
X80.04Y-23.9
X61.5Y-55.9
X64.04Y-55.9
X229.5Y-23.9
X232.04Y-23.9
X61.5Y-71.9
X64.04Y-71.9
X213.5Y-79.9
X216.04Y-79.9
X53.5Y-23.9
X56.04Y-23.9
X205.5Y-31.9
X208.04Y-31.9
X37.5Y-47.9
X40.04Y-47.9
X269.5Y-31.9
X272.04Y-31.9
X205.5Y-39.9
X208.04Y-39.9
X149.5Y-47.9
X152.04Y-47.9
X245.5Y-79.9
X248.04Y-79.9
X189.5Y-39.9
X192.04Y-39.9
X149.5Y-63.9
X152.04Y-63.9
X45.5Y-71.9
X48.04Y-71.9
X253.5Y-55.9
X256.04Y-55.9
X157.5Y-79.9
X160.04Y-79.9
X141.5Y-55.9
X144.04Y-55.9
X45.5Y-31.9
X48.04Y-31.9
X253.5Y-63.9
X256.04Y-63.9
X189.5Y-47.9
X192.04Y-47.9
X133.5Y-31.9
X136.04Y-31.9
X29.5Y-71.9
X32.04Y-71.9
X237.5Y-55.9
X240.04Y-55.9
X157.5Y-71.9
X160.04Y-71.9
X117.5Y-31.9
X120.04Y-31.9
X253.5Y-47.9
X256.04Y-47.9
X165.5Y-71.9
X168.04Y-71.9
X109.5Y-71.9
X112.04Y-71.9
X245.5Y-63.9
X248.04Y-63.9
X189.5Y-79.9
X192.04Y-79.9
X109.5Y-31.9
X112.04Y-31.9
X109.5Y-23.9
X112.04Y-23.9
X125.5Y-63.9
X128.04Y-63.9
T3
X22.5Y-85.9
X22.5Y-88.44
X22.5Y-90.98
X22.5Y-93.52
X22.5Y-96.06
X22.5Y-98.6
X22.5Y-101.14
X21.5Y-38.9
X21.5Y-41.44
X21.5Y-43.98
X21.5Y-46.52
X21.5Y-49.06
X21.5Y-51.6
X21.5Y-54.14
X21.5Y-56.68
T0
M30
